<svg width="168" height="118" fill="none" xmlns="http://www.w3.org/2000/svg"><g clip-path="url(#clip0_3201_1704)" fill="#242424"><path d="M21.73 110.178h-.284c0-.804 0-1.372-.044-1.679.35 0 .874.023 1.595.047h1.18c.218 0 .7 0 1.486-.024.568 0 .96-.023 1.223-.047-.044.378-.066.946-.087 1.679h-.306l-.044-.497c-.022-.283-.044-.472-.044-.496 0-.047-.021-.071-.043-.095l-.088-.047c-.043 0-.196 0-.459-.047h-1.201a19.41 19.41 0 00-.044 1.324v4.327c0 .307.022.52.066.567.044.071.087.095.175.142.087.024.305.047.677.047v.331c-.568-.023-.983-.047-1.267-.047-.131 0-.612 0-1.464.047v-.331c.371 0 .59 0 .677-.047.088-.024.131-.071.175-.118.044-.071.065-.237.065-.497v-5.722h-.72c-.416 0-.721 0-.962.048-.065 0-.13.023-.153.071-.043.071-.065.236-.087.543l-.044.521h.022zm5.375 1.986c0-.544.066-1.017.219-1.489.153-.45.393-.875.743-1.23s.743-.638 1.18-.827c.436-.19.939-.261 1.507-.261.524 0 .983.071 1.398.237.415.165.765.355 1.049.638.262.26.48.544.633.851.11.237.219.497.284.804.066.308.11.639.11.993 0 1.135-.35 2.105-1.07 2.861-.7.757-1.596 1.135-2.688 1.135-.502 0-.961-.071-1.376-.26a2.446 2.446 0 01-1.07-.78c-.307-.331-.525-.757-.678-1.23a4.87 4.87 0 01-.24-1.442zm.984-.425c0 .331.021.638.087.969a5.7 5.7 0 00.219.851c.152.402.349.757.59 1.017.24.284.524.473.808.615.306.141.633.189.983.189.502 0 .94-.142 1.31-.402.372-.26.656-.639.83-1.135.176-.497.263-1.04.263-1.679 0-.544-.066-1.04-.197-1.489a3.327 3.327 0 00-.327-.757 2.449 2.449 0 00-.48-.591c-.176-.166-.438-.308-.722-.426a2.586 2.586 0 00-.961-.165c-.503 0-.94.118-1.311.354-.371.237-.655.591-.852 1.041-.197.449-.284.969-.284 1.56l.044.048zm6.379-2.908v-.331h2.752v.331c-.371 0-.59.024-.677.047a.341.341 0 00-.175.119c-.043.07-.065.236-.065.496 0 .071 0 .544-.022 1.442v.71c.612.023 1.376.023 2.25.023.677 0 1.224 0 1.639-.023v-2.057c0-.331-.044-.521-.066-.568-.044-.071-.087-.094-.175-.142-.087-.023-.306-.047-.677-.047v-.331c.677.024 1.136.024 1.377.024.087 0 .546 0 1.376-.024v.331c-.372 0-.59.024-.677.047-.088.024-.131.071-.153.119-.044.07-.066.236-.088.496v5.154c0 .308.022.521.066.568.044.071.087.094.175.142.065.023.305.047.677.047v.331c-.612-.024-1.093-.047-1.486-.047-.415 0-.83 0-1.267.047v-.331c.371 0 .59 0 .677-.047.088-.024.131-.071.175-.118.044-.048.066-.237.066-.497v-2.601c-.874 0-1.551-.023-1.988-.023-.503 0-1.137 0-1.901.023v2.483c0 .307.044.52.065.567.044.071.088.095.175.142.088.024.306.047.678.047v.331a23.352 23.352 0 00-1.311-.047c-.481 0-.962 0-1.464.047v-.331c.371 0 .59 0 .677-.047a.35.35 0 00.175-.118c.044-.071.065-.237.065-.497 0-.071 0-.543.022-1.442v-3.712c0-.331-.043-.52-.065-.567-.044-.071-.088-.095-.175-.142-.087-.024-.306-.048-.677-.048l.022.024zm7.8 3.333c0-.544.066-1.017.218-1.489.153-.45.394-.875.743-1.23.35-.355.743-.638 1.158-.827.437-.19.94-.261 1.486-.261.524 0 .983.071 1.42.237.415.165.764.355 1.049.638.262.26.48.544.633.851.11.237.219.497.284.804.066.308.11.639.11.993 0 1.135-.35 2.105-1.071 2.861-.7.757-1.595 1.135-2.687 1.135-.481 0-.962-.071-1.377-.26a2.446 2.446 0 01-1.07-.78c-.306-.331-.525-.757-.678-1.23a4.87 4.87 0 01-.24-1.442h.022zm.983-.425c0 .331.022.638.088.969.065.331.13.615.218.851.153.402.35.757.59 1.017.24.284.524.473.808.615.306.141.634.189.983.189.503 0 .94-.142 1.311-.402.372-.26.656-.639.83-1.135a4.95 4.95 0 00.284-1.679 5.3 5.3 0 00-.196-1.489 2.584 2.584 0 00-.328-.757 2.028 2.028 0 00-.48-.591c-.175-.166-.416-.308-.722-.426a2.586 2.586 0 00-.96-.165c-.503 0-.94.118-1.312.354-.371.237-.655.591-.852 1.041-.196.449-.284.969-.284 1.56l.022.048zm9.131 3.665v.331l-1.42-.047s-.525 0-1.333.047v-.331c.371 0 .59 0 .677-.047.088-.024.131-.071.175-.118.044-.071.066-.237.066-.497v-5.154c0-.331-.044-.521-.066-.568-.044-.071-.087-.094-.175-.142-.087-.023-.306-.047-.677-.047v-.331c.612.024 1.07.024 1.398.024.328 0 .765 0 1.355-.024v.331c-.372 0-.59.024-.678.047a.222.222 0 00-.153.119c-.043.07-.065.236-.087.496 0 .071 0 .544-.022 1.442v1.041c.175-.095.372-.26.612-.52l.59-.615 1.049-1.135c.393-.449.655-.733.742-.851v-.355h1.617v.331c-.306 0-.502 0-.59.047a.896.896 0 00-.306.142 20.56 20.56 0 00-.917.851l-1.88 1.868 2.82 2.861c.458.449.72.709.786.757.065.047.174.047.35.071v.307H54.98a43.356 43.356 0 00-.786-.827l-.48-.497-2.142-2.175-.109.071v.993c0 .449 0 .898.022 1.347 0 .308.022.497.066.568.043.071.087.094.174.142.088.023.306.047.678.047h-.022zm3.933-6.573v-.331c.502.024.983.024 1.42.024.437 0 .895 0 1.332-.024v.331c-.371 0-.59.024-.677.047a.342.342 0 00-.175.119c-.044.07-.065.236-.087.496v3.334c0 .709.044 1.206.13 1.442.088.237.22.426.416.591.153.118.328.189.59.284.24.071.524.095.808.095.35 0 .656-.048.94-.142.284-.095.48-.213.611-.331a1.47 1.47 0 00.306-.45c.066-.165.11-.402.131-.685.044-.284.044-.662.044-1.112v-1.56c0-.473 0-.898-.022-1.348 0-.331-.022-.52-.065-.567-.044-.071-.088-.095-.175-.142-.087-.024-.306-.047-.677-.047v-.355c.524.024.895.024 1.136.024.218 0 .611 0 1.18-.024v.331c-.372 0-.59.024-.678.047a.342.342 0 00-.175.119c-.043.07-.065.236-.065.496v3.145c0 .827-.044 1.418-.153 1.749-.11.331-.306.615-.59.875-.218.189-.502.331-.83.449a4.26 4.26 0 01-1.136.166c-.48 0-.896-.071-1.246-.189-.35-.118-.633-.284-.808-.497a2.434 2.434 0 01-.393-.614c-.088-.284-.131-.733-.131-1.395v-3.594c0-.331-.022-.521-.066-.568-.044-.071-.087-.094-.175-.142-.087-.023-.305-.047-.677-.047h-.043zm13.284 6.573v.331l-1.42-.047s-.547 0-1.333.047v-.331c.371 0 .59 0 .677-.047.087-.024.153-.071.175-.118.044-.071.065-.237.065-.497 0-.071 0-.544.022-1.442v-3.712c0-.331-.022-.521-.065-.568-.044-.071-.088-.094-.175-.142-.088-.023-.306-.047-.677-.047v-.331c.611.024 1.07.024 1.398.024.328 0 .764 0 1.354-.024v.331c-.371 0-.59.024-.677.047a.342.342 0 00-.175.119c-.043.07-.065.236-.065.496 0 .071 0 .544-.022 1.442v1.041c.175-.095.371-.26.612-.52l.59-.615 1.048-1.135c.415-.449.656-.733.743-.851v-.355h1.617v.331c-.306 0-.503 0-.612.047a.896.896 0 00-.306.142 20.56 20.56 0 00-.918.851l-1.878 1.868 2.818 2.861c.459.449.72.709.765.757.065.047.174.047.371.071v.307h-1.354a43.356 43.356 0 00-.787-.827l-.48-.497-2.142-2.175-.109.071v.993c0 .449 0 .898.022 1.347 0 .308.022.497.065.568.044.071.088.094.175.142.088.023.306.047.677.047zm3.995-3.24c0-.544.088-1.017.219-1.489.153-.45.393-.875.743-1.23s.743-.638 1.18-.827c.436-.19.917-.261 1.485-.261.525 0 .983.071 1.398.237.437.165.765.355 1.05.638.283.26.48.544.633.851a3.8 3.8 0 01.284.804c.065.308.087.639.087.993 0 1.135-.35 2.105-1.07 2.861-.7.757-1.595 1.135-2.688 1.135-.48 0-.961-.071-1.376-.26a2.577 2.577 0 01-1.07-.78 3.615 3.615 0 01-.678-1.23 4.87 4.87 0 01-.24-1.442h.043zm.984-.425c0 .331.043.638.087.969.066.331.131.615.218.851.153.402.35.757.59 1.017.24.284.525.473.809.615.306.141.633.189 1.005.189.502 0 .94-.142 1.31-.402.372-.26.656-.639.83-1.135a4.95 4.95 0 00.285-1.679c0-.544-.066-1.04-.197-1.489a3.327 3.327 0 00-.328-.757 2.026 2.026 0 00-.48-.591c-.175-.166-.437-.308-.721-.426a2.586 2.586 0 00-.962-.165c-.502 0-.939.118-1.31.354-.372.237-.656.591-.852 1.041a4.272 4.272 0 00-.284 1.56v.048zm12.847 3.593a8.439 8.439 0 01-1.158.379 7.16 7.16 0 01-1.53.165c-.72 0-1.354-.142-1.944-.449a3.15 3.15 0 01-1.31-1.301c-.307-.543-.46-1.205-.46-1.962 0-.662.11-1.23.328-1.679.219-.449.503-.827.83-1.135.328-.307.656-.52.984-.662.502-.213 1.136-.307 1.878-.307.35 0 .721.047 1.093.118.371.071.808.189 1.289.331-.044.189-.088.355-.11.52-.021.166-.043.497-.087 1.017h-.284v-.591s-.022-.142-.044-.213a.58.58 0 00-.065-.213 1.097 1.097 0 00-.415-.331 4.043 4.043 0 00-.787-.26 3.356 3.356 0 00-.743-.071c-.59 0-1.114.142-1.55.402a2.53 2.53 0 00-.984 1.182 4.25 4.25 0 00-.35 1.679c0 .662.132 1.253.394 1.797.262.52.612.946 1.048 1.23.438.283.962.425 1.53.425.284 0 .546-.024.808-.094.262-.048.48-.142.656-.237a4.22 4.22 0 00.043-.638v-.568c0-.307 0-.473-.043-.52-.022-.047-.11-.094-.219-.118a5.53 5.53 0 00-.852-.047v-.308l1.464.048c.284 0 .568 0 .874-.048l.043.237-.35.212c-.043.355-.043.71-.043.994 0 .283 0 .638.044.993l.022.023zm.546-6.383v-.307l1.136-.237a.708.708 0 01.262.142c.044.047.153.166.306.378.219.331.48.757.765 1.325.284.567.612 1.182.94 1.915.327-.544.677-1.159 1.004-1.797l1.005-1.845h.721v.142c-.175.213-.48.662-.961 1.348-.262.402-.612.969-1.027 1.75-.262.473-.415.756-.459.875-.043.094-.043.212-.043.307v1.75c0 .307.021.496.065.567.044.071.11.095.175.142.087.024.306.047.677.047v.331c-.502-.023-.94-.047-1.333-.047-.35 0-.83 0-1.42.047v-.331c.372 0 .59 0 .678-.047a.224.224 0 00.153-.118c.043-.071.065-.237.087-.497 0-.071 0-.544.022-1.442v-.591c-.066-.142-.131-.284-.197-.402-.043-.071-.196-.378-.48-.875l-.306-.544a9.554 9.554 0 00-.546-.922c-.24-.355-.416-.615-.569-.757-.087-.07-.174-.141-.262-.189a1.603 1.603 0 00-.415-.047l.022-.071zm6.336 3.215c0-.544.065-1.017.218-1.489.153-.45.393-.875.743-1.23s.743-.638 1.18-.827c.437-.19.94-.261 1.485-.261.525 0 .983.071 1.399.237.415.165.764.355 1.048.638.262.26.481.544.634.851a3.8 3.8 0 01.284.804c.065.308.109.639.109.993 0 1.135-.349 2.105-1.07 2.861-.7.757-1.595 1.135-2.688 1.135-.502 0-.961-.071-1.376-.26a2.577 2.577 0 01-1.07-.78c-.306-.331-.525-.757-.678-1.23a4.825 4.825 0 01-.218-1.442zm.983-.425c0 .331.022.638.087.969a5.7 5.7 0 00.219.851c.153.402.35.757.59 1.017.24.284.524.473.808.615.306.141.633.189 1.005.189.502 0 .94-.142 1.31-.402.372-.26.656-.639.831-1.135a4.95 4.95 0 00.284-1.679c0-.544-.066-1.04-.197-1.489a3.296 3.296 0 00-.327-.757 2.027 2.027 0 00-.481-.591 2.172 2.172 0 00-.721-.426 2.586 2.586 0 00-.961-.165c-.503 0-.94.118-1.311.354-.372.237-.656.591-.852 1.041-.197.449-.284.969-.284 1.56v.048zm16.43 3.097l-.174.473c-.372.189-.721.354-1.071.425-.35.095-.721.142-1.136.142-.481 0-.939-.071-1.355-.189a3.797 3.797 0 01-1.092-.567 3.326 3.326 0 01-.765-.828 4.04 4.04 0 01-.458-.993 4.028 4.028 0 01-.153-1.182c0-1.088.349-1.986 1.048-2.696.699-.709 1.639-1.064 2.862-1.064.284 0 .547 0 .787.048.24.047.524.094.896.213.349.094.568.165.633.165-.065.189-.109.378-.153.544-.043.284-.087.615-.109.993h-.284v-.591a.971.971 0 00-.524-.757c-.306-.165-.765-.236-1.355-.236-.437 0-.83.071-1.136.189-.306.118-.59.307-.83.567-.241.26-.437.568-.59.946-.153.378-.219.875-.219 1.466 0 1.04.284 1.868.874 2.483.59.614 1.333.945 2.294.945.437 0 .831-.071 1.202-.189.262-.071.502-.213.743-.402l.087.095h-.022zm.307-2.672c0-.544.066-1.017.219-1.489.153-.45.393-.875.743-1.23a3.91 3.91 0 011.158-.827c.437-.19.939-.261 1.485-.261.525 0 .983.071 1.42.237.437.165.765.355 1.049.638.262.26.481.544.634.851a3.8 3.8 0 01.284.804c.065.308.109.639.109.993 0 1.135-.35 2.105-1.071 2.861-.699.757-1.595 1.135-2.687 1.135-.481 0-.939-.071-1.376-.26a2.58 2.58 0 01-1.071-.78c-.306-.331-.524-.757-.677-1.23a4.822 4.822 0 01-.219-1.442zm.962-.425c0 .331.021.638.087.969.044.331.131.615.219.851.152.402.349.757.589 1.017.241.284.503.473.809.615.284.141.633.189.983.189.502 0 .939-.142 1.311-.402.371-.26.655-.639.83-1.135a4.95 4.95 0 00.284-1.679c0-.544-.066-1.04-.197-1.489a3.313 3.313 0 00-.327-.757 2.445 2.445 0 00-.481-.591 2.742 2.742 0 00-.721-.426 2.587 2.587 0 00-.961-.165c-.503 0-.94.118-1.311.354-.372.237-.656.591-.852 1.041a4.267 4.267 0 00-.284 1.56l.022.048zm7.36 2.836c.153 0 .284.048.394.19.109.118.153.26.153.425a.535.535 0 01-.175.426.506.506 0 01-.393.165.508.508 0 01-.394-.165.617.617 0 01-.174-.426c0-.165.065-.307.174-.425a.53.53 0 01.394-.19h.021zm.919 2.578c.24-.426.415-.757.502-.993.087-.236.175-.473.24-.709.022-.119.066-.355.11-.757l.502-.142s.219-.071.459-.165l.109.142c-.393.969-.852 1.82-1.42 2.529l-.393.19-.109-.142v.047zm5.155-1.418v-.26c.197-.095.306-.189.371-.236.044-.024.044-.071.066-.119.022-.094.044-.307.044-.614 0-.473.021-.757.021-.828v-4.09c0-.331-.021-.521-.065-.568-.044-.071-.088-.094-.175-.142-.087-.023-.306-.047-.677-.047v-.331c.764.024 1.245.024 1.42.024.197 0 .655 0 1.354-.024v.331c-.371 0-.589.024-.677.047-.087.024-.131.071-.153.119-.043.07-.065.236-.065.496 0 .071 0 .544-.022 1.442v3.405c0 .355 0 .638.022.875.349.024.721.047 1.07.047.896 0 1.508-.047 1.857-.189.044-.095.066-.213.11-.355l.196-.851h.306a57.943 57.943 0 00-.197 1.773c-.131.024-.218.048-.305.048h-.765l-2.775-.048c-.306 0-.612 0-.917.048l-.044.047zm5.616-5.558h-.284c0-.803 0-1.371-.044-1.678.349 0 .874.023 1.617.047h1.179c.219 0 .7 0 1.486-.024.546 0 .961-.023 1.224-.047-.044.378-.066.946-.066 1.679h-.306l-.044-.497c-.021-.283-.043-.473-.043-.496 0-.048-.022-.071-.044-.095l-.087-.047c-.044 0-.197 0-.459-.047h-1.202c-.043.331-.043.756-.043 1.324v4.327c0 .307.043.52.065.567.044.071.087.095.175.142.087.024.306.047.677.047v.331c-.568-.023-.983-.047-1.267-.047-.131 0-.612 0-1.464.047v-.331c.372 0 .59 0 .677-.047a.342.342 0 00.175-.118c.044-.071.066-.237.066-.497 0-.071 0-.544.022-1.442v-3.429l-.044-.851h-.699c-.415 0-.721 0-.961.048-.066 0-.132.023-.153.07a2.425 2.425 0 00-.088.544l-.044.52h-.021zm5.572 5.558v-.236c.174-.119.327-.213.458-.308 0-.236.022-.544.044-.969.022-.686.044-1.182.044-1.442v-2.081c0-.331 0-.709-.022-1.159 0-.283-.022-.473-.066-.52 0-.047-.065-.071-.109-.094-.109-.048-.328-.071-.655-.071v-.355c.458 0 .852.024 1.201.024.262 0 .634 0 1.093-.024h1.092c.765 0 1.398.095 1.857.307.481.213.874.568 1.202 1.064.327.497.48 1.112.48 1.821 0 .52-.087.993-.218 1.442a3.975 3.975 0 01-.634 1.182c-.262.331-.546.615-.852.804-.306.189-.611.355-.939.45a5.022 5.022 0 01-1.355.165h-.786c-.437 0-.699-.024-.83-.024-.197 0-.525 0-1.005.048v-.024zm1.463-.567c.35.071.721.094 1.093.094.371 0 .743-.047 1.048-.118.306-.071.568-.189.787-.331.218-.142.415-.331.612-.591.196-.26.349-.615.458-1.017.11-.402.175-.827.175-1.277 0-.638-.109-1.182-.327-1.631-.219-.449-.525-.804-.94-1.04-.415-.237-.983-.355-1.726-.355-.371 0-.765.024-1.18.095 0 .165 0 .472-.022.874v4.351c0 .236.022.544.044.922l-.022.024zm6.553-.593a.46.46 0 01.393.19c.109.118.175.26.175.425a.535.535 0 01-.175.426.505.505 0 01-.393.165.505.505 0 01-.393-.165.614.614 0 01-.175-.426c0-.165.065-.307.175-.425a.526.526 0 01.393-.19z"/></g><g clip-path="url(#clip1_3201_1704)" fill="#242424"><path d="M92.44 72.544v-4.341c10.569-3.42 18.129-12.546 19.592-23.348h-4.819c-1.512 9.257-8.392 16.919-17.797 19.287l-1.861.329.05 9.01c-1.33.165-2.626.263-3.972.263a37.48 37.48 0 01-3.34-.164l-.033-9.01-2.094-.264c-9.638-2.12-16.933-10.013-18.512-19.468h-4.819c1.546 11.115 9.672 20.553 20.672 23.677v4.193C62.413 69.42 52.426 58.387 50.83 44.838h-4.852c1.944 18.86 18.08 33.625 37.655 33.625 19.575 0 35.71-14.765 37.655-33.625h-4.836c-1.579 13.302-11.233 24.187-23.995 27.69l-.017.016zm-.415-58.798V9.389c13.028 3.354 22.599 14.19 24.361 27.31h4.819c-1.828-15.702-13.427-28.626-29.164-32.144V0h-4.785v17.396l1.828.46c9.421 2.237 16.367 9.702 18.062 18.86h4.836c-1.645-10.753-9.306-19.698-19.94-22.954l-.017-.016zM79.885.07L75.1.103v4.489C59.446 8.16 47.897 21.067 46.086 36.704h4.819C52.65 23.632 62.155 12.83 75.116 9.426v4.242c-10.785 3.19-18.545 12.168-20.19 23.036h4.836c1.695-9.24 8.724-16.722 18.262-18.909l1.861-.263.033-17.478-.033.016z"/><path d="M89.102 59.078c1.495 0 3.04.148 3.24-.986.2-1.135-.997-1.381-.997-1.381-4.786 0-4.636-2.368-4.636-2.368s-.067-4.538-.067-13.4c0-8.863.133-12.957 4.27-12.957 4.504 0 5.318 5.952 6.016 8.32.698 2.367 3.008 2.071 3.008 1.38v-12.61H67.084v12.61c0 .691 2.31.987 3.007-1.38.698-2.368 1.53-8.32 6.016-8.32 4.138 0 4.27 4.094 4.27 12.956 0 8.863.067 13.4.067 13.4s0 2.369-4.786 2.369c0 0-1.196.246-.997 1.38.2 1.135 1.745.987 3.24.987h11.202z"/></g><g clip-path="url(#clip2_3201_1704)" fill="#242424"><path d="M19.159 91.35v-.99h-9.116v-1.45h-.99v1.45H0v.99h9.052v1.124h-5.68c-.936 0-1.69.753-1.69 1.679v2.358c0 .925.754 1.678 1.69 1.678H8.67c-1.41.808-5.036 2.767-8.671 3.846l.927.744c3.445-1.107 6.698-2.848 8.125-3.665v4.2h.991v-4.19c1.427.816 4.68 2.558 8.125 3.673l.937-.753c-3.645-1.079-7.28-3.047-8.68-3.855h5.317a1.69 1.69 0 001.69-1.678v-2.358c0-.926-.754-1.679-1.69-1.679h-5.69V91.35h9.116-.009zM9.052 97.182H3.236a.56.56 0 01-.564-.562v-.762h6.371v1.315l.01.01zm0-2.313h-6.38v-.853c0-.308.255-.562.564-.562h5.807v1.415h.01zm7.362 1.75a.566.566 0 01-.563.563h-5.808v-1.315h6.371v.762-.01zm-.563-3.156c.309 0 .563.254.563.563v.852h-6.371v-1.415h5.808zm11.505-.979H21.33v.988h6.026v5.47c-2.281 1.207-4.763 1.941-5.953 2.25l.681.843c1.246-.344 3.272-.979 5.263-1.977v3.265h.99V88.91h-.99v3.574h.009zm62.13-.409h3.008v-.988h-3.008v-2.178h-.991v2.178h-3.136v.988h3.136v1.506c-1.09 1.932-2.327 3.447-3.036 4.282l.818.644c.564-.68 1.4-1.77 2.218-3.021v7.837h.99V95.64c.719.97 1.418 1.805 1.982 2.422l.69-.707a30.238 30.238 0 01-2.671-3.447v-1.833z"/><path d="M98.74 91.876h4.099v-.989h-4.1v-1.978h-.99v1.978h-2.881c.336-.698.645-1.379.909-1.978l-1.073.019c-.572 1.288-1.308 2.812-2.172 4.272l.827.563c.373-.626.718-1.261 1.036-1.896h3.372v2.966H92.15v.989h5.617v.335c-1.209 1.225-3.199 3.112-5.408 4.717l.691.717c1.845-1.343 3.508-2.858 4.717-4.037v5.751h.99v-5.46c1.173 1.133 2.718 2.512 4.418 3.746l.691-.717c-2.036-1.478-3.89-3.202-5.108-4.417v-.626h5.29v-.989h-5.29v-2.966h-.018zm-59.668 9.851a.558.558 0 01-.564.553h-4.471a.558.558 0 01-.564-.553v-6.876c3-1.297 5.58-3.284 6.308-3.873l-.882-.563c-.89.69-3.008 2.24-5.426 3.347V88.91h-.99v12.7c0 .934.754 1.678 1.69 1.678h4.217c.927 0 1.681-.753 1.681-1.678v-3.193h-1.008v3.302l.009.009zm13.497-10.15h8.18v-.98H43.244v.98h8.334v9.434h-9.18v.988h19.196v-.988H52.57v-9.434zm29.974 6.83h-8.988v-.989h7.58v-.989h-7.58v-.988h7.861v-.99h-5.098l1.263-1.614h4.672v-.989h-3.9l1.555-1.986-.782-.608-2.027 2.594h-1.481V88.91h-.99v2.94h-3.055v-2.94h-.99v2.94h-1.564l-2.026-2.595-.782.608 1.554 1.987H63.93v.988h4.608l1.263 1.615h-5.035v.989h7.798v.988h-7.516v.99h7.516v.988h-8.916v.989h6.826c-1.773.698-4.381 1.596-6.99 2.113l.628.88c3.635-.771 7.107-2.195 8.452-2.785v3.611h.99V99.65c1.418.616 4.809 1.986 8.362 2.739l.627-.88c-2.608-.517-5.217-1.415-6.989-2.113h6.99v-.99zm-11.488-3.955l-1.263-1.615h6.535l-1.264 1.615h-4.008zm46.28 5.697c-1.5.354-3.045.59-4.463.744v-5.062h4.063v-.988h-9.216v.988h4.163v5.162c-2.818.263-4.963.227-4.999.227v.988h.282c1.199 0 5.953-.072 10.388-1.106l-.227-.962.009.009z"/><path d="M125.461 91.812h-6.571a47.646 47.646 0 01-.636-2.903h-1c.064.336.255 1.425.609 2.903h-11.461v.989h11.706c.846 3.23 2.336 7.674 4.636 10.35.1.109.236.172.381.172h.082a.511.511 0 00.382-.308l1.718-4.463a.5.5 0 00-.282-.644.484.484 0 00-.636.29l-1.409 3.656c-1.8-2.467-3.054-6.168-3.817-9.035h6.316v-.989l-.018-.018z"/><path d="M123.916 90.36l-2.708-1.45-.464.88 2.709 1.442.463-.871zm38.864 11.603v-9.162h4.462v-.989h-4.462V88.91h-.991v2.903h-4.054v.989h4.054v9.162h-5.744v.988h11.697v-.988h-4.962z"/><path d="M156.981 98.57l.509-.843-3.844-2.359v-.027c2.354-2.386 2.763-3.737 2.781-3.81a.535.535 0 00-.082-.435.47.47 0 00-.391-.19H153.8v-1.997h-.99v1.978h-3.79v.98h6.144c-.573.988-2.118 3.084-6.054 6.077l.6.79a38.338 38.338 0 002.945-2.45v7.194h.991v-6.967l3.335 2.05v.01zm-13.615-4.78h-12.188v.988h12.188v-.988zm3.098 3.628v-.988h-18.468v.988h6.426l-4.217 4.663a.493.493 0 00-.073.553.482.482 0 00.445.272h.037l13.76-.97 1.209 1.351.745-.653-4.363-4.898-.745.653 2.327 2.603-11.779.826 3.99-4.418h10.706v.018z"/><path d="M137.268 89.481c3.39 2.53 7.426 4 8.671 4.427l.454-.89c-.89-.299-4.408-1.541-7.57-3.655h-.01a2.797 2.797 0 00-1.536-.454c-.563 0-1.127.173-1.581.472-3.163 2.105-6.662 3.347-7.544 3.638l.455.889c1.245-.418 5.28-1.896 8.67-4.427h-.009z"/></g><defs><clipPath id="clip0_3201_1704"><path fill="#fff" transform="translate(21.402 108.357)" d="M0 0h124.793v8.914H0z"/></clipPath><clipPath id="clip1_3201_1704"><path fill="#fff" transform="translate(45.978)" d="M0 0h75.309v78.48H0z"/></clipPath><clipPath id="clip2_3201_1704"><path fill="#fff" transform="translate(0 88.91)" d="M0 0h167.742v14.586H0z"/></clipPath></defs></svg>