<svg width="320" height="57" fill="none" xmlns="http://www.w3.org/2000/svg"><g clip-path="url(#clip0_5201_174)" fill="#242424"><path d="M62.76 41.676h-.436c0-1.235 0-2.107-.067-2.58.537 0 1.343.037 2.45.074h1.813c.336 0 1.074 0 2.283-.037.873 0 1.477-.036 1.88-.073-.067.582-.1 1.454-.134 2.58h-.47l-.067-.763c-.034-.436-.068-.727-.068-.763 0-.072-.033-.109-.067-.145l-.134-.073c-.067 0-.302 0-.705-.072h-1.846a29.786 29.786 0 00-.067 2.034v6.648c0 .473.033.8.1.872.067.11.134.146.269.218.134.037.47.073 1.04.073v.509c-.872-.037-1.51-.073-1.947-.073-.201 0-.94 0-2.249.073v-.509c.57 0 .907 0 1.04-.073.135-.036.202-.109.27-.181.067-.11.1-.364.1-.763V39.86H64.64c-.638 0-1.108 0-1.477.072-.1 0-.201.037-.235.11-.067.108-.1.363-.134.835l-.067.8h.033zm8.259 3.052c0-.836.1-1.562.335-2.289a4.926 4.926 0 011.142-1.889 5.781 5.781 0 011.812-1.271c.672-.291 1.444-.4 2.317-.4.805 0 1.51.109 2.148.363.638.255 1.175.545 1.612.981.402.4.738.836.973 1.308.168.363.336.763.436 1.235.101.473.168.981.168 1.526 0 1.744-.537 3.233-1.645 4.396-1.074 1.163-2.45 1.744-4.129 1.744-.772 0-1.477-.11-2.115-.4a3.77 3.77 0 01-1.644-1.199c-.47-.508-.806-1.162-1.041-1.889-.235-.763-.37-1.49-.37-2.216zm1.51-.654c0 .509.034.981.135 1.49.1.508.2.944.335 1.308.235.617.537 1.162.907 1.562.369.436.805.726 1.242.944.47.218.973.291 1.51.291a3.43 3.43 0 002.014-.618c.571-.4 1.008-.98 1.276-1.744.269-.762.403-1.598.403-2.579 0-.836-.1-1.599-.302-2.289a5.107 5.107 0 00-.504-1.162c-.201-.364-.47-.654-.738-.909-.269-.254-.672-.472-1.108-.654a3.98 3.98 0 00-1.477-.254c-.772 0-1.444.182-2.014.545-.571.363-1.007.908-1.31 1.599-.302.69-.436 1.49-.436 2.398l.067.072zm9.801-4.468v-.508h4.231v.508c-.571 0-.907.037-1.041.073a.527.527 0 00-.269.182c-.067.109-.1.363-.1.763 0 .108 0 .835-.034 2.216v1.09c.94.036 2.115.036 3.458.036 1.04 0 1.88 0 2.517-.036v-3.161c0-.509-.067-.8-.1-.872-.067-.11-.135-.145-.269-.218-.134-.036-.47-.073-1.04-.073v-.508a56.79 56.79 0 002.114.036c.135 0 .84 0 2.115-.036v.508c-.57 0-.906.037-1.04.073-.135.036-.202.109-.235.182-.067.109-.101.363-.135.763v7.919c0 .473.034.8.101.872.067.11.135.146.269.218.1.037.47.073 1.04.073v.509c-.94-.037-1.678-.073-2.282-.073-.638 0-1.276 0-1.947.073v-.509c.57 0 .906 0 1.04-.073a.527.527 0 00.269-.181c.067-.073.1-.363.1-.763v-3.996c-1.342 0-2.383-.037-3.054-.037-.772 0-1.746 0-2.92.037v3.814c0 .473.066.8.1.872.067.11.134.145.268.218.135.036.47.073 1.041.073v.508a34.885 34.885 0 00-2.014-.072c-.739 0-1.477 0-2.25.072v-.508c.571 0 .907 0 1.041-.073a.526.526 0 00.269-.182c.067-.109.1-.363.1-.762 0-.11 0-.836.034-2.217v-5.703c0-.51-.067-.8-.1-.872-.068-.11-.135-.146-.27-.218-.133-.037-.47-.073-1.04-.073l.034.036zm11.986 5.122c0-.836.1-1.562.335-2.289a4.928 4.928 0 011.142-1.889 6.051 6.051 0 011.78-1.271c.67-.291 1.443-.4 2.282-.4.805 0 1.51.109 2.182.363.638.255 1.175.545 1.611.981.403.4.739.836.974 1.308.168.363.335.763.436 1.235.101.473.168.981.168 1.526 0 1.744-.537 3.233-1.645 4.396-1.074 1.163-2.451 1.744-4.129 1.744-.739 0-1.477-.11-2.115-.4a3.77 3.77 0 01-1.645-1.199c-.47-.508-.805-1.162-1.04-1.889-.236-.763-.37-1.49-.37-2.216h.034zm1.51-.654c0 .509.034.981.135 1.49.1.508.201.944.335 1.308.235.617.537 1.162.907 1.562.37.436.805.726 1.242.944.47.218.973.291 1.51.291.773 0 1.444-.218 2.015-.618.57-.4 1.007-.98 1.275-1.744a7.602 7.602 0 00.437-2.579c0-.836-.101-1.599-.302-2.289a3.955 3.955 0 00-.504-1.162 3.132 3.132 0 00-.738-.909c-.269-.254-.638-.472-1.108-.654a3.98 3.98 0 00-1.477-.254c-.772 0-1.444.182-2.014.545-.571.363-1.008.908-1.31 1.599-.302.69-.436 1.49-.436 2.398l.033.072zm14.033 5.632v.509l-2.182-.073s-.806 0-2.048.073v-.509c.571 0 .907 0 1.041-.073.134-.036.201-.109.269-.181.067-.11.1-.363.1-.763v-7.92c0-.509-.067-.8-.1-.872-.068-.11-.135-.145-.269-.218-.134-.036-.47-.073-1.041-.073v-.508c.94.036 1.645.036 2.149.036.503 0 1.175 0 2.081-.036v.508c-.57 0-.906.037-1.04.073-.135.036-.202.109-.235.182-.068.109-.101.363-.135.763 0 .108 0 .835-.033 2.216v1.598c.268-.145.57-.4.94-.8l.906-.944 1.611-1.744c.605-.69 1.007-1.126 1.142-1.307v-.545h2.484v.508c-.47 0-.772 0-.906.073a1.36 1.36 0 00-.47.218c-.303.254-.773.69-1.41 1.308l-2.887 2.87 4.33 4.396c.705.69 1.108 1.09 1.209 1.162.1.073.268.073.537.11v.472h-2.048a69.68 69.68 0 00-1.209-1.272l-.738-.763-3.29-3.342-.168.109v1.526c0 .69 0 1.38.034 2.07 0 .473.033.763.101.872.067.11.134.146.268.218.134.037.47.073 1.041.073h-.034zm6.041-10.101v-.509c.772.037 1.511.037 2.182.037.672 0 1.377 0 2.048-.037v.51c-.57 0-.906.035-1.04.072-.135.036-.202.109-.269.181-.067.11-.101.364-.134.763v5.123c0 1.09.067 1.853.201 2.216.134.363.336.654.638.908.235.182.503.29.906.436.37.11.806.145 1.242.145a4.5 4.5 0 001.444-.217c.436-.146.738-.327.94-.51.201-.217.369-.435.47-.69.101-.254.168-.617.201-1.053.067-.436.067-1.017.067-1.707v-2.398c0-.727 0-1.38-.033-2.071 0-.509-.034-.8-.101-.872-.067-.109-.134-.145-.268-.218-.135-.036-.47-.073-1.041-.073v-.545c.806.037 1.376.037 1.746.037.335 0 .939 0 1.812-.037v.51c-.57 0-.906.035-1.04.072a.524.524 0 00-.269.181c-.067.11-.101.364-.101.763v4.832c0 1.272-.067 2.18-.235 2.689-.167.508-.47.944-.906 1.344-.336.29-.772.508-1.276.69a6.569 6.569 0 01-1.745.255 5.963 5.963 0 01-1.914-.291c-.537-.182-.973-.436-1.242-.763-.268-.327-.47-.618-.604-.945-.134-.436-.202-1.126-.202-2.143v-5.522c0-.509-.033-.8-.1-.872-.067-.11-.135-.146-.269-.218-.134-.037-.47-.073-1.04-.073h-.068zm20.411 10.1v.509l-2.182-.073s-.84 0-2.048.073v-.51c.57 0 .906 0 1.04-.072.135-.036.235-.109.269-.181.067-.11.101-.364.101-.763 0-.11 0-.836.033-2.217v-5.703c0-.509-.033-.8-.1-.872-.068-.11-.135-.146-.269-.218-.134-.037-.47-.073-1.041-.073v-.509c.94.037 1.645.037 2.149.037.503 0 1.175 0 2.081-.037v.51c-.571 0-.906.035-1.04.072-.135.036-.202.109-.269.181-.067.11-.101.364-.101.763 0 .11 0 .836-.033 2.216v1.599c.268-.145.57-.4.94-.8l.906-.944 1.611-1.744c.638-.69 1.007-1.126 1.142-1.308v-.545h2.484v.51c-.47 0-.772 0-.94.072a1.366 1.366 0 00-.47.218c-.302.254-.772.69-1.41 1.308l-2.887 2.87 4.331 4.396c.705.69 1.107 1.09 1.174 1.162.101.073.269.073.571.11v.472h-2.081a69.68 69.68 0 00-1.209-1.272l-.738-.763-3.29-3.342-.168.109v1.526c0 .69 0 1.38.034 2.07 0 .473.033.763.1.872.068.11.135.145.269.218.134.037.47.073 1.041.073zm6.145-4.977c0-.836.134-1.562.336-2.289a4.916 4.916 0 011.141-1.889 5.774 5.774 0 011.813-1.271c.671-.291 1.41-.4 2.282-.4.806 0 1.511.109 2.149.363.671.255 1.175.545 1.611.981.437.4.739.836.974 1.308.168.363.335.763.436 1.235.101.473.134.981.134 1.526 0 1.744-.537 3.233-1.644 4.396-1.075 1.163-2.451 1.744-4.13 1.744-.738 0-1.477-.11-2.114-.4a3.97 3.97 0 01-1.645-1.199 5.544 5.544 0 01-1.041-1.889c-.235-.763-.369-1.49-.369-2.216h.067zm1.51-.654c0 .509.068.981.135 1.49.1.508.201.944.335 1.308.235.617.538 1.162.907 1.562.369.436.805.726 1.242.944.47.218.973.291 1.544.291a3.43 3.43 0 002.014-.618c.571-.4 1.007-.98 1.276-1.744a7.603 7.603 0 00.436-2.579c0-.836-.1-1.599-.302-2.289a5.115 5.115 0 00-.503-1.162 3.15 3.15 0 00-.739-.909c-.268-.254-.671-.472-1.108-.654a3.98 3.98 0 00-1.477-.254c-.772 0-1.443.182-2.014.545-.571.363-1.007.908-1.309 1.599a6.56 6.56 0 00-.437 2.398v.072zm19.738 5.522c-.705.29-1.343.472-1.779.581-.84.182-1.612.255-2.35.255-1.108 0-2.082-.218-2.988-.69a4.833 4.833 0 01-2.014-1.999c-.47-.836-.705-1.853-.705-3.015 0-1.018.168-1.89.503-2.58a5.952 5.952 0 011.276-1.744 5.264 5.264 0 011.511-1.017c.772-.327 1.745-.472 2.887-.472.537 0 1.108.072 1.678.181.571.11 1.242.291 1.981.51-.067.29-.134.544-.168.798-.034.255-.067.763-.134 1.563h-.437v-.909s-.033-.218-.067-.327c0-.072-.033-.181-.101-.327a1.672 1.672 0 00-.637-.508 6.258 6.258 0 00-1.209-.4 5.126 5.126 0 00-1.141-.109c-.907 0-1.712.218-2.384.618a3.881 3.881 0 00-1.51 1.816 6.518 6.518 0 00-.537 2.58c0 1.017.201 1.925.604 2.76.403.8.94 1.454 1.611 1.89.672.436 1.477.654 2.35.654a4.67 4.67 0 001.242-.145 3.347 3.347 0 001.007-.364c.034-.218.067-.545.067-.98v-.873c0-.472 0-.726-.067-.799-.033-.072-.168-.145-.335-.181-.202-.037-.638-.073-1.31-.073v-.472l2.249.072c.437 0 .873 0 1.343-.072l.067.363-.537.327c-.067.545-.067 1.09-.067 1.526 0 .436 0 .98.067 1.526l.034.036zm.841-9.808v-.473l1.746-.363c.201.073.335.145.403.218.067.072.235.254.469.581a19.15 19.15 0 011.175 2.035c.437.872.94 1.816 1.444 2.942a47.01 47.01 0 001.544-2.76l1.544-2.834h1.108v.218c-.268.327-.738 1.017-1.477 2.07-.403.618-.94 1.49-1.578 2.689-.403.726-.638 1.162-.705 1.344-.067.145-.067.327-.067.472v2.688c0 .473.034.764.101.873.067.109.168.145.268.218.135.036.47.072 1.041.072v.509c-.772-.036-1.443-.073-2.048-.073-.537 0-1.275 0-2.182.073v-.509c.571 0 .907 0 1.041-.072a.342.342 0 00.235-.182c.067-.109.101-.363.134-.763 0-.109 0-.836.034-2.216v-.908c-.101-.218-.202-.436-.302-.618-.067-.109-.302-.581-.739-1.344l-.47-.836a14.73 14.73 0 00-.839-1.417c-.369-.545-.638-.944-.873-1.162a2.736 2.736 0 00-.403-.29 2.406 2.406 0 00-.638-.073l.034-.11zm9.733 4.94c0-.836.1-1.562.335-2.289a4.93 4.93 0 011.142-1.889 5.781 5.781 0 011.812-1.271c.672-.291 1.444-.4 2.283-.4.806 0 1.511.109 2.149.363.637.255 1.175.545 1.611.981.403.4.739.836.974 1.308.167.363.335.763.436 1.235.101.473.168.981.168 1.526 0 1.744-.537 3.233-1.645 4.396-1.074 1.163-2.451 1.744-4.129 1.744-.772 0-1.477-.11-2.115-.4a3.97 3.97 0 01-1.645-1.199c-.47-.508-.806-1.162-1.041-1.889a7.417 7.417 0 01-.335-2.216zm1.51-.654c0 .509.034.981.135 1.49.1.508.201.944.335 1.308.235.617.537 1.162.907 1.562.369.436.805.726 1.242.944.47.218.973.291 1.544.291.772 0 1.443-.218 2.014-.618.571-.4 1.007-.98 1.276-1.744a7.628 7.628 0 00.436-2.579c0-.836-.101-1.599-.302-2.289a5.072 5.072 0 00-.504-1.162 3.132 3.132 0 00-.738-.909c-.269-.254-.638-.472-1.108-.654a3.98 3.98 0 00-1.477-.254c-.772 0-1.443.182-2.014.545-.571.363-1.007.908-1.309 1.599-.302.69-.437 1.49-.437 2.398v.072zm25.246 4.759l-.269.727c-.571.29-1.108.545-1.645.654a6.603 6.603 0 01-1.746.218 7.63 7.63 0 01-2.081-.29c-.638-.219-1.208-.51-1.678-.873-.504-.4-.873-.799-1.175-1.271a6.219 6.219 0 01-.705-1.526c-.168-.545-.235-1.163-.235-1.817 0-1.67.537-3.051 1.611-4.141 1.074-1.09 2.518-1.635 4.398-1.635.436 0 .839 0 1.208.073.37.072.806.145 1.377.327.537.145.872.254.973.254-.101.29-.168.581-.235.835-.067.436-.134.945-.168 1.526h-.436v-.908a1.49 1.49 0 00-.806-1.162c-.47-.255-1.175-.364-2.081-.364-.671 0-1.276.11-1.746.29a3.4 3.4 0 00-1.275.873c-.37.4-.672.872-.907 1.453-.235.581-.335 1.344-.335 2.252 0 1.599.436 2.87 1.342 3.815.907.945 2.048 1.453 3.525 1.453.672 0 1.276-.109 1.847-.29.402-.11.772-.327 1.141-.618l.134.145h-.033zm.47-4.105c0-.836.101-1.562.336-2.289a4.928 4.928 0 011.141-1.889 6.065 6.065 0 011.78-1.271c.671-.291 1.443-.4 2.282-.4.806 0 1.511.109 2.182.363.672.255 1.175.545 1.612.981.403.4.738.836.973 1.308.168.363.336.763.437 1.235.1.473.168.981.168 1.526 0 1.744-.538 3.233-1.645 4.396-1.075 1.163-2.451 1.744-4.129 1.744-.739 0-1.444-.11-2.115-.4a3.97 3.97 0 01-1.645-1.199c-.47-.508-.806-1.162-1.041-1.889a7.419 7.419 0 01-.336-2.216zm1.477-.654c0 .509.034.981.135 1.49.067.508.201.944.335 1.308.235.617.538 1.162.907 1.562a3.5 3.5 0 001.242.944c.436.218.973.291 1.511.291.772 0 1.443-.218 2.014-.618.57-.4 1.007-.98 1.275-1.744a7.602 7.602 0 00.437-2.579c0-.836-.101-1.599-.302-2.289a5.116 5.116 0 00-.504-1.162c-.201-.364-.47-.654-.738-.909a4.256 4.256 0 00-1.108-.654 3.98 3.98 0 00-1.477-.254c-.772 0-1.444.182-2.014.545-.571.363-1.008.908-1.31 1.599a6.58 6.58 0 00-.436 2.398l.033.072zm11.314 4.359c.235 0 .436.073.604.291.168.182.235.4.235.654s-.067.472-.268.654a.779.779 0 01-.605.254.777.777 0 01-.604-.254.944.944 0 01-.268-.654c0-.254.1-.472.268-.654.168-.182.369-.29.604-.29h.034zm1.409 3.961c.369-.654.637-1.163.772-1.526.134-.364.268-.727.369-1.09.034-.182.101-.545.168-1.163l.772-.218s.336-.109.705-.254l.168.218c-.604 1.49-1.309 2.797-2.182 3.887l-.605.29-.167-.217v.073zm7.924-2.179v-.4c.302-.145.47-.29.571-.363.067-.037.067-.11.101-.182.033-.145.067-.472.067-.945 0-.726.033-1.162.033-1.271v-6.285c0-.509-.033-.8-.1-.872-.067-.11-.135-.145-.269-.218-.134-.036-.47-.073-1.041-.073v-.508c1.175.036 1.914.036 2.183.036.302 0 1.007 0 2.081-.036v.508c-.571 0-.907.037-1.041.073-.134.036-.201.109-.235.182-.067.109-.101.363-.101.763 0 .108 0 .835-.033 2.216v5.231c0 .545 0 .981.033 1.344a24.89 24.89 0 001.645.073c1.377 0 2.317-.073 2.854-.29.067-.146.101-.328.168-.545l.302-1.308h.47a85.926 85.926 0 00-.302 2.724c-.202.037-.336.073-.47.073h-1.175l-4.264-.073c-.47 0-.94 0-1.41.073l-.067.073zm8.625-8.539h-.436c0-1.235 0-2.107-.067-2.58.537 0 1.343.037 2.484.074h1.813c.335 0 1.074 0 2.282-.037.84 0 1.478-.036 1.88-.073-.067.582-.1 1.454-.1 2.58h-.47l-.067-.763c-.034-.436-.068-.727-.068-.763 0-.072-.033-.109-.067-.145l-.134-.073c-.067 0-.302 0-.705-.072h-1.846c-.067.508-.067 1.162-.067 2.034v6.648c0 .473.067.8.1.872.067.11.135.146.269.218.134.037.47.073 1.04.073v.509c-.872-.037-1.51-.073-1.947-.073-.201 0-.94 0-2.249.073v-.509c.571 0 .907 0 1.041-.073.134-.036.201-.109.268-.181.068-.11.101-.364.101-.763 0-.11 0-.836.034-2.216v-5.268l-.067-1.308H234.2c-.637 0-1.107 0-1.477.072-.1 0-.201.037-.235.11-.033.108-.1.363-.134.835l-.067.8h-.034zm8.562 8.538v-.364c.268-.181.503-.327.705-.472 0-.363.033-.836.067-1.49.033-1.053.067-1.816.067-2.216v-3.197c0-.508 0-1.09-.034-1.78 0-.436-.033-.727-.1-.8 0-.072-.101-.108-.168-.145-.168-.072-.504-.109-1.007-.109v-.545c.705 0 1.309.037 1.846.037.403 0 .974 0 1.679-.037h1.678c1.175 0 2.149.146 2.853.473.739.327 1.343.872 1.847 1.635.503.763.738 1.707.738 2.797 0 .8-.134 1.526-.335 2.216a6.095 6.095 0 01-.974 1.817c-.403.508-.839.944-1.309 1.235-.47.29-.94.545-1.444.69-.503.145-1.208.255-2.081.255h-1.208c-.672 0-1.075-.037-1.276-.037-.302 0-.806 0-1.544.073v-.036zm2.249-.872a8.513 8.513 0 001.678.145c.571 0 1.142-.073 1.612-.182.47-.109.873-.29 1.208-.508.336-.218.638-.509.94-.909.302-.4.537-.944.705-1.562a7.443 7.443 0 00.269-1.962c0-.98-.168-1.816-.504-2.506-.336-.69-.806-1.236-1.443-1.599-.638-.363-1.511-.545-2.652-.545-.571 0-1.175.036-1.813.145 0 .255 0 .727-.034 1.345v6.684c0 .364.034.836.067 1.417l-.033.037zm10.07-.909c.235 0 .437.073.605.291.167.182.268.4.268.654s-.067.472-.268.654a.779.779 0 01-.605.254.777.777 0 01-.604-.254.945.945 0 01-.269-.654c0-.254.101-.472.269-.654.168-.182.369-.29.604-.29z"/></g><g clip-path="url(#clip1_5201_174)" fill="#242424"><path d="M33.032 52.073v-3.1A20.408 20.408 0 0046.96 32.305h-3.427a17.024 17.024 0 01-12.652 13.77l-1.324.235.036 6.433c-.945.117-1.867.188-2.824.188a26.5 26.5 0 01-2.374-.117l-.024-6.434-1.488-.187c-6.852-1.515-12.039-7.15-13.161-13.9H6.297c1.099 7.936 6.876 14.674 14.696 16.905v2.993C11.684 49.843 4.583 41.966 3.45 32.292H0C1.382 45.757 12.854 56.3 26.77 56.3c13.917 0 25.389-10.542 26.77-24.007h-3.437c-1.122 9.497-7.986 17.269-17.06 19.77l-.011.011zm-.296-41.979V6.983c9.262 2.395 16.067 10.13 17.319 19.499h3.426c-1.3-11.211-9.546-20.438-20.734-22.95V.28h-3.402V12.7l1.3.329c6.698 1.596 11.636 6.926 12.841 13.464h3.438c-1.17-7.677-6.616-14.063-14.177-16.387l-.011-.012zM24.1.327l-3.403.024v3.205C9.568 6.103 1.357 15.318.07 26.482h3.426c1.24-9.332 7.998-17.045 17.213-19.475v3.029C13.04 12.313 7.524 18.723 6.355 26.482h3.437c1.206-6.597 6.203-11.938 12.984-13.5l1.323-.188.024-12.478-.024.011z"/><path d="M30.658 42.46c1.063 0 2.162.105 2.304-.705.142-.81-.709-.986-.709-.986-3.402 0-3.296-1.69-3.296-1.69s-.047-3.24-.047-9.568c0-6.328.094-9.25 3.036-9.25 3.201 0 3.78 4.249 4.276 5.94.497 1.69 2.139 1.479 2.139.986v-9.004H15.005v9.004c0 .493 1.642.704 2.138-.986.496-1.691 1.087-5.94 4.277-5.94 2.941 0 3.036 2.922 3.036 9.25 0 6.327.047 9.567.047 9.567s0 1.69-3.402 1.69c0 0-.851.177-.71.987.143.81 1.241.704 2.305.704h7.962z"/></g><g clip-path="url(#clip2_5201_174)" fill="#242424"><path d="M91.696 12.745v-1.519H77.689v-2.23h-1.523v2.23h-13.91v1.52h13.91v1.728h-8.728a2.587 2.587 0 00-2.598 2.578v3.624a2.587 2.587 0 002.598 2.579h8.142c-2.165 1.24-7.737 4.25-13.323 5.91l1.424 1.142c5.293-1.7 10.293-4.376 12.485-5.63v6.453h1.523v-6.44c2.192 1.255 7.192 3.93 12.484 5.645l1.439-1.157c-5.6-1.658-11.186-4.683-13.337-5.923h8.17c1.424 0 2.597-1.157 2.597-2.579v-3.624a2.587 2.587 0 00-2.597-2.578h-8.743v-1.729H91.71h-.014zm-15.53 8.963h-8.938a.86.86 0 01-.865-.864v-1.171h9.79v2.02l.013.015zm0-3.555h-9.803v-1.31a.87.87 0 01.865-.864h8.924v2.174h.014zm11.312 2.69a.87.87 0 01-.866.865H77.69v-2.021h9.79v1.17-.014zm-.866-4.85a.87.87 0 01.866.864v1.31h-9.79v-2.174h8.924zm17.679-1.505h-9.259v1.519h9.259v8.405c-3.505 1.853-7.318 2.982-9.147 3.456l1.047 1.297c1.914-.53 5.028-1.506 8.086-3.039v5.018h1.522V8.996h-1.522v5.492h.014zm95.468-.628h4.622v-1.519h-4.622V8.996h-1.523v3.345h-4.818v1.52h4.818v2.313c-1.675 2.969-3.575 5.297-4.664 6.579l1.257.99a53.081 53.081 0 003.407-4.642v12.043h1.523V19.338a47.607 47.607 0 003.044 3.722l1.061-1.088c-1.145-1.282-2.695-3.15-4.105-5.296v-2.815z"/><path d="M213.977 13.554h6.298v-1.52h-6.298V8.997h-1.523v3.039h-4.427a98.642 98.642 0 001.397-3.039l-1.648.028c-.88 1.98-2.011 4.32-3.338 6.565l1.271.864a45.717 45.717 0 001.592-2.913h5.181v4.558h-8.63v1.519h8.63v.516c-1.857 1.881-4.915 4.78-8.309 7.247l1.061 1.102c2.835-2.063 5.391-4.391 7.248-6.203v8.837h1.523v-8.39c1.801 1.741 4.175 3.86 6.787 5.756l1.061-1.102c-3.128-2.271-5.977-4.92-7.848-6.787v-.962h8.127v-1.52h-8.127v-4.557h-.028zM122.294 28.69c0 .474-.392.85-.866.85h-6.871a.858.858 0 01-.866-.85V18.126c4.608-1.993 8.575-5.045 9.692-5.951l-1.355-.864c-1.368 1.06-4.622 3.442-8.337 5.143V8.996h-1.522V28.51a2.578 2.578 0 002.597 2.579h6.48a2.584 2.584 0 002.584-2.579v-4.906h-1.55v5.074l.014.014zm20.738-15.596h12.569v-1.505h-26.897v1.505h12.806V27.59h-14.105v1.519h29.494v-1.52h-13.867V13.095zm46.056 10.496h-13.811v-1.52h11.647v-1.52h-11.647v-1.518h12.08v-1.52h-7.835l1.941-2.48h7.179v-1.52h-5.992l2.388-3.052-1.201-.934-3.114 3.986h-2.276V8.996h-1.522v4.516h-4.693V8.996h-1.522v4.516h-2.402l-3.114-3.986-1.201.934 2.388 3.052h-5.893v1.52h7.08l1.941 2.48h-7.737v1.52h11.983v1.519h-11.55v1.519h11.55v1.52h-13.7v1.518h10.488c-2.724 1.074-6.732 2.454-10.74 3.248l.964 1.352c5.586-1.185 10.921-3.373 12.988-4.279v5.547h1.522V25.5c2.178.948 7.387 3.052 12.848 4.21l.963-1.353c-4.008-.794-8.016-2.174-10.739-3.248h10.739V23.59zm-17.652-6.078l-1.941-2.48h10.041l-1.941 2.48h-6.159zm71.112 8.753c-2.304.544-4.678.906-6.857 1.143v-7.777h6.243v-1.52h-14.161v1.52h6.396v7.93c-4.329.405-7.625.349-7.681.349v1.52h.433c1.844 0 9.147-.112 15.963-1.701l-.35-1.478.014.014z"/><path d="M255.035 13.456h-10.097a72.97 72.97 0 01-.978-4.46h-1.536c.098.516.391 2.188.936 4.46h-17.61v1.52h17.987c1.299 4.961 3.589 11.791 7.122 15.903a.797.797 0 00.587.265h.126a.785.785 0 00.586-.474l2.64-6.858a.767.767 0 00-.433-.99.745.745 0 00-.978.447l-2.165 5.617c-2.765-3.791-4.692-9.478-5.865-13.883h9.706v-1.519l-.028-.028z"/><path d="M252.661 11.226l-4.162-2.23-.712 1.352 4.162 2.216.712-1.338zm59.715 17.827V14.975h6.857v-1.519h-6.857v-4.46h-1.522v4.46h-6.229v1.52h6.229v14.077h-8.826v1.52h17.973v-1.52h-7.625z"/><path d="M303.465 23.84l.782-1.296-5.907-3.624v-.042c3.617-3.665 4.245-5.742 4.273-5.854a.818.818 0 00-.126-.669.721.721 0 00-.6-.293h-3.31V8.997h-1.522v3.039h-5.824v1.505h9.441c-.88 1.52-3.254 4.739-9.301 9.338l.922 1.213c1.801-1.366 3.295-2.62 4.524-3.763V31.38h1.523V20.676l5.125 3.15v.014zm-20.918-7.345h-18.728v1.52h18.728v-1.52zm4.761 5.575v-1.52H258.93v1.52h9.874l-6.48 7.164a.76.76 0 00-.112.85.743.743 0 00.685.418h.055l21.144-1.491 1.857 2.077 1.145-1.004-6.703-7.526-1.145 1.003 3.575 4-18.099 1.269 6.131-6.788h16.451v.028z"/><path d="M273.176 9.874c5.209 3.889 11.41 6.147 13.323 6.802l.698-1.366c-1.368-.46-6.773-2.37-11.633-5.617h-.014a4.3 4.3 0 00-2.36-.697c-.866 0-1.732.265-2.43.725-4.86 3.233-10.236 5.143-11.591 5.589l.698 1.366c1.913-.641 8.114-2.913 13.323-6.802h-.014z"/></g><defs><clipPath id="clip0_5201_174"><path fill="#fff" transform="translate(62.257 38.879)" d="M0 0h191.751v13.697H0z"/></clipPath><clipPath id="clip1_5201_174"><path fill="#fff" transform="translate(0 .28)" d="M0 0h53.541v56.031H0z"/></clipPath><clipPath id="clip2_5201_174"><path fill="#fff" transform="translate(62.257 8.996)" d="M0 0h257.743v22.412H0z"/></clipPath></defs></svg>