<svg width="16" height="17" viewBox="0 0 16 17" fill="none" xmlns="http://www.w3.org/2000/svg">
<g clip-path="url(#clip0_3312_230)">
<path fill-rule="evenodd" clip-rule="evenodd" d="M10.4712 7.8242C10.5962 7.94922 10.6664 8.11875 10.6664 8.29553C10.6664 8.47231 10.5962 8.64185 10.4712 8.76686L6.6999 12.5382C6.63841 12.6019 6.56484 12.6527 6.48351 12.6876C6.40217 12.7225 6.31469 12.7409 6.22617 12.7417C6.13765 12.7425 6.04986 12.7256 5.96793 12.6921C5.886 12.6586 5.81157 12.6091 5.74897 12.5465C5.68638 12.4839 5.63688 12.4094 5.60336 12.3275C5.56983 12.2456 5.55297 12.1578 5.55374 12.0693C5.55451 11.9807 5.5729 11.8933 5.60784 11.8119C5.64277 11.7306 5.69356 11.657 5.75724 11.5955L9.05724 8.29553L5.75724 4.99553C5.6358 4.8698 5.5686 4.70139 5.57012 4.5266C5.57164 4.3518 5.64175 4.18459 5.76536 4.06098C5.88896 3.93738 6.05617 3.86727 6.23097 3.86575C6.40577 3.86423 6.57417 3.93143 6.6999 4.05286L10.4712 7.8242Z" fill="#0B238A"/>
</g>
<defs>
<clipPath id="clip0_3312_230">
<rect width="16" height="16" fill="white" transform="translate(0 0.29541)"/>
</clipPath>
</defs>
</svg>
