<svg width="320" height="57" viewBox="0 0 320 57" fill="none" xmlns="http://www.w3.org/2000/svg">
<g clip-path="url(#clip0_5201_174)">
<path d="M62.7604 41.6763H62.324C62.324 40.4411 62.324 39.5692 62.2568 39.0969C62.794 39.0969 63.5996 39.1332 64.7074 39.1695C65.6138 39.1695 66.2181 39.1695 66.5202 39.1695C66.8559 39.1695 67.5944 39.1695 68.803 39.1332C69.6758 39.1332 70.28 39.0969 70.6829 39.0605C70.6157 39.6418 70.5822 40.5138 70.5486 41.64H70.0786L70.0115 40.8771C69.9779 40.4411 69.9443 40.1505 69.9443 40.1141C69.9443 40.0415 69.9108 40.0051 69.8772 39.9688C69.8772 39.9688 69.81 39.9325 69.7429 39.8961C69.6758 39.8961 69.4408 39.8961 69.0379 39.8235C68.6351 39.8235 68.2994 39.8235 68.0644 39.8235H67.1916C67.158 40.3321 67.1245 40.986 67.1245 41.858V46.4356C67.1245 47.1259 67.1245 47.8161 67.1245 48.5064C67.1245 48.9787 67.158 49.3057 67.2252 49.3783C67.2923 49.4873 67.3594 49.5236 67.4937 49.5963C67.628 49.6326 67.9637 49.669 68.5344 49.669V50.1776C67.6616 50.1413 67.0238 50.1049 66.5873 50.1049C66.3859 50.1049 65.6474 50.1049 64.3382 50.1776V49.669C64.9089 49.669 65.2446 49.669 65.3788 49.5963C65.5131 49.56 65.5802 49.4873 65.6474 49.4147C65.7145 49.3057 65.7481 49.0514 65.7481 48.6517C65.7481 48.5427 65.7481 47.8161 65.7481 46.4356V41.8943C65.7481 41.6763 65.7481 41.422 65.7481 41.1677V39.8598H64.6403C64.0025 39.8598 63.5325 39.8598 63.1632 39.9325C63.0625 39.9325 62.9618 39.9688 62.9282 40.0415C62.8611 40.1505 62.8275 40.4048 62.794 40.8771L62.7268 41.6763H62.7604Z" fill="#242424"/>
<path d="M71.0186 44.7281C71.0186 43.8925 71.1193 43.1659 71.3543 42.4393C71.5892 41.749 71.9585 41.095 72.4956 40.5501C73.0327 40.0051 73.637 39.5692 74.3084 39.2785C74.9798 38.9879 75.7519 38.8789 76.6247 38.8789C77.4304 38.8789 78.1354 38.9879 78.7732 39.2422C79.411 39.4965 79.9481 39.7872 80.3845 40.2231C80.7874 40.6228 81.1231 41.0587 81.3581 41.531C81.5259 41.8943 81.6938 42.2939 81.7945 42.7662C81.8952 43.2385 81.9623 43.7472 81.9623 44.2921C81.9623 46.036 81.4252 47.5255 80.3174 48.6881C79.2432 49.8506 77.8668 50.4319 76.1883 50.4319C75.4162 50.4319 74.7112 50.3229 74.0734 50.0323C73.402 49.778 72.8649 49.3783 72.4285 48.8334C71.9585 48.3248 71.6228 47.6708 71.3878 46.9442C71.1528 46.1813 71.0186 45.4547 71.0186 44.7281ZM72.5292 44.0741C72.5292 44.5827 72.5628 45.055 72.6635 45.5637C72.7642 46.0723 72.8649 46.5083 72.9992 46.8716C73.2342 47.4892 73.5363 48.0341 73.9056 48.4338C74.2748 48.8697 74.7112 49.1604 75.1476 49.3783C75.6176 49.5963 76.1212 49.669 76.6583 49.669C77.4304 49.669 78.1018 49.451 78.6725 49.0514C79.2432 48.6517 79.6796 48.0704 79.9481 47.3075C80.2167 46.5446 80.351 45.709 80.351 44.7281C80.351 43.8925 80.2503 43.1295 80.0488 42.4393C79.9146 42.0033 79.7467 41.6037 79.5453 41.2767C79.3439 40.9134 79.0753 40.6228 78.8068 40.3684C78.5382 40.1141 78.1354 39.8962 77.699 39.7145C77.229 39.5329 76.759 39.4602 76.2219 39.4602C75.4498 39.4602 74.7784 39.6418 74.2077 40.0051C73.637 40.3684 73.2006 40.9134 72.8985 41.6037C72.5963 42.2939 72.4621 43.0932 72.4621 44.0015L72.5292 44.0741Z" fill="#242424"/>
<path d="M82.3308 39.6063V39.0977H84.5464H86.5606V39.6063C85.9899 39.6063 85.6542 39.6426 85.5199 39.6789C85.3857 39.7153 85.3185 39.7879 85.2514 39.8606C85.1842 39.9696 85.1507 40.2239 85.1507 40.6235C85.1507 40.7325 85.1507 41.4591 85.1171 42.8397V43.9296C86.0571 43.9659 87.232 43.9659 88.5748 43.9659C89.6155 43.9659 90.4547 43.9659 91.0925 43.9296V42.8397C91.0925 42.1131 91.0925 41.4591 91.0925 40.7688C91.0925 40.2602 91.0254 39.9696 90.9918 39.8969C90.9247 39.7879 90.8575 39.7516 90.7233 39.6789C90.589 39.6426 90.2533 39.6063 89.6826 39.6063V39.0977C90.7233 39.134 91.4282 39.134 91.7975 39.134C91.9318 39.134 92.6368 39.134 93.9124 39.0977V39.6063C93.3417 39.6063 93.006 39.6426 92.8717 39.6789C92.7375 39.7153 92.6703 39.7879 92.6368 39.8606C92.5696 39.9696 92.536 40.2239 92.5025 40.6235C92.5025 40.7325 92.5025 41.4591 92.5025 42.8397V46.4727C92.5025 47.163 92.5025 47.8532 92.5025 48.5435C92.5025 49.0158 92.536 49.3428 92.6032 49.4154C92.6703 49.5244 92.7375 49.5608 92.8717 49.6334C92.9724 49.6697 93.3417 49.7061 93.9124 49.7061V50.2147C92.9724 50.1784 92.2339 50.142 91.6297 50.142C90.9918 50.142 90.354 50.142 89.6826 50.2147V49.7061C90.2533 49.7061 90.589 49.7061 90.7233 49.6334C90.8575 49.5971 90.9247 49.5244 90.9918 49.4518C91.059 49.3791 91.0925 49.0885 91.0925 48.6888C91.0925 48.5798 91.0925 47.8532 91.0925 46.4727V44.6925C89.7497 44.6925 88.7091 44.6562 88.0377 44.6562C87.2656 44.6562 86.2921 44.6562 85.1171 44.6925V46.4727C85.1171 47.163 85.1171 47.8532 85.1171 48.5072C85.1171 48.9795 85.1842 49.3064 85.2178 49.3791C85.285 49.4881 85.3521 49.5244 85.4864 49.5971C85.6207 49.6334 85.9564 49.6697 86.527 49.6697V50.1784C85.8892 50.142 85.2178 50.1057 84.5129 50.1057C83.7743 50.1057 83.0358 50.1057 82.2637 50.1784V49.6697C82.8344 49.6697 83.1701 49.6697 83.3043 49.5971C83.4386 49.5608 83.5058 49.4881 83.5729 49.4154C83.64 49.3064 83.6736 49.0521 83.6736 48.6525C83.6736 48.5435 83.6736 47.8169 83.7072 46.4364V42.8033C83.7072 42.0767 83.7072 41.4228 83.7072 40.7325C83.7072 40.2239 83.64 39.9333 83.6065 39.8606C83.5393 39.7516 83.4722 39.7153 83.3379 39.6426C83.2036 39.6063 82.8679 39.5699 82.2972 39.5699L82.3308 39.6063Z" fill="#242424"/>
<path d="M94.3158 44.7281C94.3158 43.8925 94.4165 43.1659 94.6515 42.4393C94.8865 41.749 95.2558 41.095 95.7929 40.5501C96.33 40.0051 96.9342 39.5692 97.5721 39.2785C98.2435 38.9879 99.0156 38.8789 99.8548 38.8789C100.66 38.8789 101.365 38.9879 102.037 39.2422C102.675 39.4965 103.212 39.7872 103.648 40.2231C104.051 40.6228 104.387 41.0587 104.622 41.531C104.79 41.8943 104.957 42.2939 105.058 42.7662C105.159 43.2385 105.226 43.7472 105.226 44.2921C105.226 46.036 104.689 47.5255 103.581 48.6881C102.507 49.8506 101.13 50.4319 99.452 50.4319C98.7134 50.4319 97.9749 50.3229 97.3371 50.0323C96.6657 49.778 96.1286 49.3783 95.6922 48.8334C95.2222 48.3248 94.8865 47.6708 94.6515 46.9442C94.4165 46.1813 94.2822 45.4547 94.2822 44.7281H94.3158ZM95.8264 44.0741C95.8264 44.5827 95.86 45.055 95.9607 45.5637C96.0614 46.0723 96.1621 46.5083 96.2964 46.8716C96.5314 47.4892 96.8335 48.0341 97.2028 48.4338C97.5721 48.8697 98.0085 49.1604 98.4449 49.3783C98.9149 49.5963 99.4184 49.669 99.9555 49.669C100.728 49.669 101.399 49.451 101.97 49.0514C102.54 48.6517 102.977 48.0704 103.245 47.3075C103.514 46.5446 103.682 45.709 103.682 44.7281C103.682 43.8925 103.581 43.1295 103.38 42.4393C103.279 42.0033 103.078 41.6037 102.876 41.2767C102.675 40.9134 102.44 40.6228 102.138 40.3684C101.869 40.1141 101.5 39.8962 101.03 39.7145C100.56 39.5329 100.09 39.4602 99.5527 39.4602C98.7806 39.4602 98.1092 39.6418 97.5385 40.0051C96.9678 40.3684 96.5314 40.9134 96.2293 41.6037C95.9271 42.2939 95.7929 43.0932 95.7929 44.0015L95.8264 44.0741Z" fill="#242424"/>
<path d="M109.859 49.7061V50.2147L107.677 50.142C107.677 50.142 106.871 50.142 105.629 50.2147V49.7061C106.2 49.7061 106.536 49.7061 106.67 49.6334C106.804 49.5971 106.871 49.5244 106.939 49.4518C107.006 49.3428 107.039 49.0885 107.039 48.6888C107.039 48.5798 107.039 47.8532 107.039 46.4727V42.8397C107.039 42.1131 107.039 41.4591 107.039 40.7688C107.039 40.2602 106.972 39.9696 106.939 39.8969C106.871 39.7879 106.804 39.7516 106.67 39.6789C106.536 39.6426 106.2 39.6063 105.629 39.6063V39.0977C106.569 39.134 107.274 39.134 107.778 39.134C108.281 39.134 108.953 39.134 109.859 39.0977V39.6063C109.289 39.6063 108.953 39.6426 108.819 39.6789C108.684 39.7153 108.617 39.7879 108.584 39.8606C108.516 39.9696 108.483 40.2239 108.449 40.6235C108.449 40.7325 108.449 41.4591 108.416 42.8397V44.4382C108.684 44.2929 108.986 44.0386 109.356 43.6389L110.262 42.6943L111.873 40.9505C112.478 40.2602 112.88 39.8243 113.015 39.6426V39.0977C113.585 39.0977 114.055 39.0977 114.358 39.0977C114.693 39.0977 115.096 39.0977 115.499 39.0977V39.6063C115.029 39.6063 114.727 39.6063 114.593 39.6789C114.425 39.7153 114.29 39.7879 114.123 39.8969C113.82 40.1512 113.35 40.5872 112.713 41.2048L109.826 44.0749L114.156 48.4709C114.861 49.1611 115.264 49.5608 115.365 49.6334C115.465 49.7061 115.633 49.7061 115.902 49.7424V50.2147C115.432 50.2147 115.13 50.2147 114.962 50.2147C114.794 50.2147 114.425 50.2147 113.854 50.2147C113.753 50.1057 113.35 49.6697 112.645 48.9431L111.907 48.1802L108.617 44.8378L108.449 44.9468V46.4727C108.449 47.163 108.449 47.8532 108.483 48.5435C108.483 49.0158 108.516 49.3064 108.584 49.4154C108.651 49.5244 108.718 49.5608 108.852 49.6334C108.986 49.6697 109.322 49.7061 109.893 49.7061H109.859Z" fill="#242424"/>
<path d="M115.9 39.6051V39.0964C116.672 39.1328 117.411 39.1328 118.082 39.1328C118.754 39.1328 119.459 39.1328 120.13 39.0964V39.6051C119.56 39.6051 119.224 39.6414 119.09 39.6777C118.955 39.714 118.888 39.7867 118.821 39.8594C118.754 39.9684 118.72 40.2227 118.687 40.6223C118.687 40.7313 118.687 41.4579 118.687 42.8384V45.7449C118.687 46.8348 118.754 47.5977 118.888 47.961C119.022 48.3243 119.224 48.615 119.526 48.8693C119.761 49.0509 120.029 49.1599 120.432 49.3052C120.802 49.4142 121.238 49.4505 121.674 49.4505C122.212 49.4505 122.681 49.3779 123.118 49.2326C123.554 49.0872 123.856 48.9056 124.058 48.7239C124.259 48.506 124.427 48.288 124.528 48.0337C124.629 47.7794 124.696 47.4161 124.729 46.9801C124.796 46.5441 124.796 45.9628 124.796 45.2726V42.8748C124.796 42.1482 124.796 41.4942 124.763 40.804C124.763 40.2953 124.729 40.0047 124.662 39.932C124.595 39.823 124.528 39.7867 124.394 39.714C124.259 39.6777 123.924 39.6414 123.353 39.6414V39.0964C124.159 39.1328 124.729 39.1328 125.099 39.1328C125.434 39.1328 126.038 39.1328 126.911 39.0964V39.6051C126.341 39.6051 126.005 39.6414 125.871 39.6777C125.736 39.714 125.669 39.7867 125.602 39.8594C125.535 39.9684 125.501 40.2227 125.501 40.6223C125.501 40.7313 125.501 41.4579 125.501 42.8384V45.4542C125.501 46.7258 125.434 47.634 125.266 48.1427C125.099 48.6513 124.796 49.0872 124.36 49.4869C124.024 49.7775 123.588 49.9955 123.084 50.1772C122.547 50.3225 121.977 50.4315 121.339 50.4315C120.6 50.4315 119.962 50.3225 119.425 50.1408C118.888 49.9592 118.452 49.7049 118.183 49.3779C117.915 49.0509 117.713 48.7603 117.579 48.4333C117.445 47.9973 117.377 47.3071 117.377 46.2898V42.8384C117.377 42.1118 117.377 41.4579 117.377 40.7676C117.377 40.259 117.344 39.9684 117.277 39.8957C117.21 39.7867 117.142 39.7504 117.008 39.6777C116.874 39.6414 116.538 39.6051 115.968 39.6051H115.9Z" fill="#242424"/>
<path d="M136.311 49.7049V50.2135L134.129 50.1408C134.129 50.1408 133.289 50.1408 132.081 50.2135V49.7049C132.651 49.7049 132.987 49.7049 133.121 49.6322C133.256 49.5959 133.356 49.5232 133.39 49.4505C133.457 49.3416 133.491 49.0872 133.491 48.6876C133.491 48.5786 133.491 47.852 133.524 46.4715V42.8384C133.524 42.1118 133.524 41.4579 133.524 40.7676C133.524 40.259 133.491 39.9684 133.424 39.8957C133.356 39.7867 133.289 39.7504 133.155 39.6777C133.021 39.6414 132.685 39.6051 132.114 39.6051V39.0964C133.054 39.1328 133.759 39.1328 134.263 39.1328C134.766 39.1328 135.438 39.1328 136.344 39.0964V39.6051C135.773 39.6051 135.438 39.6414 135.304 39.6777C135.169 39.714 135.102 39.7867 135.035 39.8594C134.968 39.9684 134.934 40.2227 134.934 40.6223C134.934 40.7313 134.934 41.4579 134.901 42.8384V44.437C135.169 44.2917 135.471 44.0373 135.841 43.6377L136.747 42.6931L138.358 40.9493C138.996 40.259 139.365 39.823 139.5 39.6414V39.0964C140.07 39.0964 140.54 39.0964 140.843 39.0964C141.178 39.0964 141.581 39.0964 141.984 39.0964V39.6051C141.514 39.6051 141.212 39.6051 141.044 39.6777C140.876 39.714 140.742 39.7867 140.574 39.8957C140.272 40.15 139.802 40.586 139.164 41.2036L136.277 44.0737L140.608 48.4696C141.313 49.1599 141.715 49.5595 141.782 49.6322C141.883 49.7049 142.051 49.7049 142.353 49.7412V50.2135C141.883 50.2135 141.548 50.2135 141.413 50.2135C141.245 50.2135 140.843 50.2135 140.272 50.2135C140.171 50.1045 139.768 49.6685 139.063 48.9419L138.325 48.179L135.035 44.8366L134.867 44.9456V46.4715C134.867 47.1617 134.867 47.852 134.901 48.5423C134.901 49.0146 134.934 49.3052 135.001 49.4142C135.069 49.5232 135.136 49.5595 135.27 49.6322C135.404 49.6685 135.74 49.7049 136.311 49.7049Z" fill="#242424"/>
<path d="M142.456 44.7281C142.456 43.8925 142.59 43.1659 142.792 42.4393C143.026 41.749 143.396 41.095 143.933 40.5501C144.47 40.0051 145.074 39.5692 145.746 39.2785C146.417 38.9879 147.156 38.8789 148.028 38.8789C148.834 38.8789 149.539 38.9879 150.177 39.2422C150.848 39.4965 151.352 39.7872 151.788 40.2231C152.225 40.6228 152.527 41.0587 152.762 41.531C152.93 41.8943 153.097 42.2939 153.198 42.7662C153.299 43.2385 153.332 43.7472 153.332 44.2921C153.332 46.036 152.795 47.5255 151.688 48.6881C150.613 49.8506 149.237 50.4319 147.558 50.4319C146.82 50.4319 146.081 50.3229 145.444 50.0323C144.806 49.778 144.235 49.3783 143.799 48.8334C143.362 48.3248 142.993 47.6708 142.758 46.9442C142.523 46.1813 142.389 45.4547 142.389 44.7281H142.456ZM143.966 44.0741C143.966 44.5827 144.034 45.055 144.101 45.5637C144.201 46.0723 144.302 46.5083 144.436 46.8716C144.671 47.4892 144.974 48.0341 145.343 48.4338C145.712 48.8697 146.148 49.1604 146.585 49.3783C147.055 49.5963 147.558 49.669 148.129 49.669C148.901 49.669 149.573 49.451 150.143 49.0514C150.714 48.6517 151.15 48.0704 151.419 47.3075C151.688 46.5446 151.855 45.709 151.855 44.7281C151.855 43.8925 151.755 43.1295 151.553 42.4393C151.419 42.0033 151.251 41.6037 151.05 41.2767C150.848 40.9134 150.613 40.6228 150.311 40.3684C150.043 40.1141 149.64 39.8962 149.203 39.7145C148.733 39.5329 148.263 39.4602 147.726 39.4602C146.954 39.4602 146.283 39.6418 145.712 40.0051C145.141 40.3684 144.705 40.9134 144.403 41.6037C144.134 42.2939 143.966 43.0932 143.966 44.0015V44.0741Z" fill="#242424"/>
<path d="M163.704 49.5959C162.999 49.8865 162.361 50.0682 161.925 50.1772C161.085 50.3588 160.313 50.4315 159.575 50.4315C158.467 50.4315 157.493 50.2135 156.587 49.7412C155.714 49.2689 155.043 48.615 154.573 47.743C154.103 46.9074 153.868 45.8902 153.868 44.7276C153.868 43.7104 154.036 42.8385 154.371 42.1482C154.707 41.4579 155.144 40.8766 155.647 40.4043C156.151 39.932 156.654 39.6051 157.158 39.3871C157.93 39.0601 158.903 38.9148 160.045 38.9148C160.582 38.9148 161.153 38.9875 161.723 39.0964C162.294 39.2054 162.965 39.3871 163.704 39.6051C163.637 39.8957 163.57 40.15 163.536 40.4043C163.502 40.6586 163.469 41.1673 163.402 41.9665H162.965V41.0583C162.965 41.0583 162.932 40.8403 162.898 40.7313C162.898 40.6586 162.865 40.5497 162.797 40.4043C162.663 40.2227 162.462 40.041 162.16 39.8957C161.656 39.6777 161.287 39.5687 160.951 39.4961C160.649 39.4234 160.246 39.3871 159.81 39.3871C158.903 39.3871 158.098 39.6051 157.426 40.0047C156.755 40.4407 156.251 41.0219 155.916 41.8212C155.58 42.6205 155.379 43.4561 155.379 44.4007C155.379 45.4179 155.58 46.3262 155.983 47.1618C156.386 47.961 156.923 48.615 157.594 49.0509C158.266 49.4869 159.071 49.7049 159.944 49.7049C160.38 49.7049 160.783 49.6685 161.186 49.5595C161.589 49.4869 161.925 49.3416 162.193 49.1962C162.227 48.9783 162.26 48.6513 162.26 48.2153V47.3434C162.26 46.8711 162.26 46.6168 162.193 46.5441C162.16 46.4715 162.025 46.3988 161.858 46.3625C161.656 46.3262 161.22 46.2898 160.548 46.2898V45.8175L162.797 45.8902C163.234 45.8902 163.67 45.8902 164.14 45.8175L164.207 46.1808L163.67 46.5078C163.603 47.0528 163.603 47.5977 163.603 48.0337C163.603 48.4696 163.603 49.0146 163.67 49.5595L163.704 49.5959Z" fill="#242424"/>
<path d="M164.545 39.7875V39.3152L166.291 38.9519C166.492 39.0246 166.626 39.0972 166.694 39.1699C166.761 39.2425 166.929 39.4242 167.163 39.7512C167.499 40.2598 167.902 40.9137 168.338 41.7857C168.775 42.6576 169.278 43.6022 169.782 44.7284C170.285 43.8928 170.823 42.9482 171.326 41.9673L172.87 39.1336H173.978V39.3515C173.71 39.6785 173.24 40.3688 172.501 41.4224C172.098 42.04 171.561 42.9119 170.923 44.1108C170.52 44.8374 170.285 45.2734 170.218 45.455C170.151 45.6003 170.151 45.782 170.151 45.9273V46.5449C170.151 47.2352 170.151 47.9255 170.151 48.6157C170.151 49.088 170.185 49.3787 170.252 49.4877C170.319 49.5967 170.42 49.633 170.52 49.7056C170.655 49.742 170.99 49.7783 171.561 49.7783V50.2869C170.789 50.2506 170.118 50.2143 169.513 50.2143C168.976 50.2143 168.238 50.2143 167.331 50.2869V49.7783C167.902 49.7783 168.238 49.7783 168.372 49.7056C168.506 49.6693 168.573 49.5967 168.607 49.524C168.674 49.415 168.708 49.1607 168.741 48.7611C168.741 48.6521 168.741 47.9255 168.775 46.5449V45.6367C168.674 45.4187 168.573 45.2007 168.473 45.0191C168.406 44.9101 168.171 44.4378 167.734 43.6748L167.264 42.8392C166.895 42.149 166.626 41.713 166.425 41.4224C166.056 40.8774 165.787 40.4778 165.552 40.2598C165.418 40.1508 165.284 40.0418 165.149 39.9692C165.015 39.9328 164.814 39.8965 164.511 39.8965L164.545 39.7875Z" fill="#242424"/>
<path d="M174.278 44.7281C174.278 43.8925 174.378 43.1659 174.613 42.4393C174.848 41.749 175.218 41.095 175.755 40.5501C176.292 40.0051 176.896 39.5692 177.567 39.2785C178.239 38.9879 179.011 38.8789 179.85 38.8789C180.656 38.8789 181.361 38.9879 181.999 39.2422C182.636 39.4965 183.174 39.7872 183.61 40.2231C184.013 40.6228 184.349 41.0587 184.584 41.531C184.751 41.8943 184.919 42.2939 185.02 42.7662C185.121 43.2385 185.188 43.7472 185.188 44.2921C185.188 46.036 184.651 47.5255 183.543 48.6881C182.469 49.8506 181.092 50.4319 179.414 50.4319C178.642 50.4319 177.937 50.3229 177.299 50.0323C176.661 49.778 176.09 49.3783 175.654 48.8334C175.184 48.3248 174.848 47.6708 174.613 46.9442C174.378 46.1813 174.278 45.4547 174.278 44.7281ZM175.788 44.0741C175.788 44.5827 175.822 45.055 175.923 45.5637C176.023 46.0723 176.124 46.5083 176.258 46.8716C176.493 47.4892 176.795 48.0341 177.165 48.4338C177.534 48.8697 177.97 49.1604 178.407 49.3783C178.877 49.5963 179.38 49.669 179.951 49.669C180.723 49.669 181.394 49.451 181.965 49.0514C182.536 48.6517 182.972 48.0704 183.241 47.3075C183.509 46.5446 183.677 45.709 183.677 44.7281C183.677 43.8925 183.576 43.1295 183.375 42.4393C183.241 42.0033 183.073 41.6037 182.871 41.2767C182.67 40.9134 182.435 40.6228 182.133 40.3684C181.864 40.1141 181.495 39.8962 181.025 39.7145C180.555 39.5329 180.085 39.4602 179.548 39.4602C178.776 39.4602 178.105 39.6418 177.534 40.0051C176.963 40.3684 176.527 40.9134 176.225 41.6037C175.923 42.2939 175.788 43.0932 175.788 44.0015V44.0741Z" fill="#242424"/>
<path d="M201.034 48.8334L200.765 49.56C200.194 49.8506 199.657 50.1049 199.12 50.2139C198.583 50.3593 198.012 50.4319 197.374 50.4319C196.636 50.4319 195.931 50.3229 195.293 50.1413C194.655 49.9233 194.085 49.6326 193.615 49.2693C193.111 48.8697 192.742 48.4701 192.44 47.9978C192.138 47.5255 191.903 47.0169 191.735 46.4719C191.567 45.927 191.5 45.3094 191.5 44.6554C191.5 42.9842 192.037 41.6037 193.111 40.5138C194.185 39.4239 195.629 38.8789 197.509 38.8789C197.945 38.8789 198.348 38.8789 198.717 38.9516C199.087 39.0242 199.523 39.0969 200.094 39.2785C200.631 39.4239 200.966 39.5329 201.067 39.5329C200.966 39.8235 200.899 40.1141 200.832 40.3684C200.765 40.8044 200.698 41.313 200.664 41.8943H200.228V40.9861C200.161 40.4774 199.892 40.0778 199.422 39.8235C198.952 39.5692 198.247 39.4602 197.341 39.4602C196.67 39.4602 196.065 39.5692 195.595 39.7508C195.125 39.9325 194.689 40.2231 194.32 40.6228C193.95 41.0224 193.648 41.4947 193.413 42.076C193.178 42.6572 193.078 43.4202 193.078 44.3284C193.078 45.927 193.514 47.1985 194.42 48.1431C195.327 49.0877 196.468 49.5963 197.945 49.5963C198.617 49.5963 199.221 49.4873 199.792 49.3057C200.194 49.1967 200.564 48.9787 200.933 48.6881L201.067 48.8334H201.034Z" fill="#242424"/>
<path d="M201.504 44.7281C201.504 43.8925 201.605 43.1659 201.84 42.4393C202.075 41.749 202.444 41.095 202.981 40.5501C203.519 40.0051 204.123 39.5692 204.761 39.2785C205.432 38.9879 206.204 38.8789 207.043 38.8789C207.849 38.8789 208.554 38.9879 209.225 39.2422C209.897 39.4965 210.4 39.7872 210.837 40.2231C211.24 40.6228 211.575 41.0587 211.81 41.531C211.978 41.8943 212.146 42.2939 212.247 42.7662C212.347 43.2385 212.415 43.7472 212.415 44.2921C212.415 46.036 211.877 47.5255 210.77 48.6881C209.695 49.8506 208.319 50.4319 206.641 50.4319C205.902 50.4319 205.197 50.3229 204.526 50.0323C203.888 49.778 203.317 49.3783 202.881 48.8334C202.411 48.3248 202.075 47.6708 201.84 46.9442C201.605 46.1813 201.504 45.4547 201.504 44.7281ZM202.981 44.0741C202.981 44.5827 203.015 45.055 203.116 45.5637C203.183 46.0723 203.317 46.5083 203.451 46.8716C203.686 47.4892 203.989 48.0341 204.358 48.4338C204.727 48.8697 205.13 49.1604 205.6 49.3783C206.036 49.5963 206.573 49.669 207.111 49.669C207.883 49.669 208.554 49.451 209.125 49.0514C209.695 48.6517 210.132 48.0704 210.4 47.3075C210.669 46.5446 210.837 45.709 210.837 44.7281C210.837 43.8925 210.736 43.1295 210.535 42.4393C210.4 42.0033 210.233 41.6037 210.031 41.2767C209.83 40.9134 209.561 40.6228 209.293 40.3684C208.99 40.1141 208.621 39.8962 208.185 39.7145C207.715 39.5329 207.245 39.4602 206.708 39.4602C205.936 39.4602 205.264 39.6418 204.694 40.0051C204.123 40.3684 203.686 40.9134 203.384 41.6037C203.116 42.2939 202.948 43.0932 202.948 44.0015L202.981 44.0741Z" fill="#242424"/>
<path d="M214.295 48.4333C214.53 48.4333 214.731 48.506 214.899 48.724C215.067 48.9056 215.134 49.1236 215.134 49.3779C215.134 49.6322 215.067 49.8502 214.866 50.0319C214.698 50.2135 214.496 50.2862 214.261 50.2862C214.026 50.2862 213.825 50.2135 213.657 50.0319C213.489 49.8502 213.389 49.6322 213.389 49.3779C213.389 49.1236 213.489 48.9056 213.657 48.724C213.825 48.5423 214.026 48.4333 214.261 48.4333H214.295Z" fill="#242424"/>
<path d="M215.704 52.3935C216.073 51.7395 216.341 51.2309 216.476 50.8676C216.61 50.5043 216.744 50.141 216.845 49.7777C216.879 49.596 216.946 49.2327 217.013 48.6151L217.785 48.3971C217.785 48.3971 218.121 48.2881 218.49 48.1428L218.658 48.3608C218.054 49.8503 217.349 51.1582 216.476 52.2481L215.871 52.5388L215.704 52.3208V52.3935Z" fill="#242424"/>
<path d="M223.628 50.2147V49.8151C223.93 49.6697 224.098 49.5244 224.199 49.4518C224.266 49.4154 224.266 49.3428 224.3 49.2701C224.333 49.1248 224.367 48.7978 224.367 48.3255C224.367 47.5989 224.4 47.163 224.4 47.054V42.8397C224.4 42.1131 224.4 41.4591 224.4 40.7688C224.4 40.2602 224.367 39.9696 224.3 39.8969C224.233 39.7879 224.165 39.7516 224.031 39.6789C223.897 39.6426 223.561 39.6063 222.99 39.6063V39.0977C224.165 39.134 224.904 39.134 225.173 39.134C225.475 39.134 226.18 39.134 227.254 39.0977V39.6063C226.683 39.6063 226.347 39.6426 226.213 39.6789C226.079 39.7153 226.012 39.7879 225.978 39.8606C225.911 39.9696 225.877 40.2239 225.877 40.6235C225.877 40.7325 225.877 41.4591 225.844 42.8397V48.0712C225.844 48.6162 225.844 49.0521 225.877 49.4154C226.415 49.4518 226.985 49.4881 227.522 49.4881C228.899 49.4881 229.839 49.4154 230.376 49.1975C230.443 49.0521 230.477 48.8705 230.544 48.6525L230.846 47.3446H231.316C231.215 48.1075 231.114 49.0521 231.014 50.0694C230.812 50.1057 230.678 50.142 230.544 50.142C230.309 50.142 229.906 50.142 229.369 50.142L225.105 50.0694C224.635 50.0694 224.165 50.0694 223.695 50.142L223.628 50.2147Z" fill="#242424"/>
<path d="M232.253 41.6763H231.817C231.817 40.4411 231.817 39.5692 231.75 39.0969C232.287 39.0969 233.093 39.1332 234.234 39.1695C235.14 39.1695 235.745 39.1695 236.047 39.1695C236.382 39.1695 237.121 39.1695 238.329 39.1332C239.169 39.1332 239.807 39.0969 240.209 39.0605C240.142 39.6418 240.109 40.5138 240.109 41.64H239.639L239.572 40.8771C239.538 40.4411 239.504 40.1505 239.504 40.1141C239.504 40.0415 239.471 40.0051 239.437 39.9688C239.437 39.9688 239.37 39.9325 239.303 39.8961C239.236 39.8961 239.001 39.8961 238.598 39.8235C238.195 39.8235 237.859 39.8235 237.624 39.8235H236.752C236.685 40.3321 236.685 40.986 236.685 41.858V46.4356C236.685 47.1259 236.685 47.8161 236.685 48.5064C236.685 48.9787 236.752 49.3057 236.785 49.3783C236.852 49.4873 236.92 49.5236 237.054 49.5963C237.188 49.6326 237.524 49.669 238.094 49.669V50.1776C237.222 50.1413 236.584 50.1049 236.147 50.1049C235.946 50.1049 235.207 50.1049 233.898 50.1776V49.669C234.469 49.669 234.805 49.669 234.939 49.5963C235.073 49.56 235.14 49.4873 235.207 49.4147C235.275 49.3057 235.308 49.0514 235.308 48.6517C235.308 48.5427 235.308 47.8161 235.342 46.4356V41.8943C235.342 41.6763 235.342 41.422 235.342 41.1677L235.275 39.8598H234.2C233.563 39.8598 233.093 39.8598 232.723 39.9325C232.623 39.9325 232.522 39.9688 232.488 40.0415C232.455 40.1505 232.388 40.4048 232.354 40.8771L232.287 41.6763H232.253Z" fill="#242424"/>
<path d="M240.815 50.2135V49.8502C241.083 49.6685 241.318 49.5232 241.52 49.3779C241.52 49.0146 241.553 48.5423 241.587 47.8883C241.62 46.8348 241.654 46.0718 241.654 45.6722V42.4751C241.654 41.9665 241.654 41.3852 241.62 40.695C241.62 40.259 241.587 39.9684 241.52 39.8957C241.52 39.823 241.419 39.7867 241.352 39.7504C241.184 39.6777 240.848 39.6414 240.345 39.6414V39.0964C241.05 39.0964 241.654 39.1328 242.191 39.1328C242.594 39.1328 243.165 39.1328 243.87 39.0964C244.575 39.0964 245.145 39.0964 245.548 39.0964C246.723 39.0964 247.697 39.2418 248.401 39.5687C249.14 39.8957 249.744 40.4407 250.248 41.2036C250.751 41.9665 250.986 42.9111 250.986 44.001C250.986 44.8003 250.852 45.5269 250.651 46.2172C250.416 46.9074 250.08 47.525 249.677 48.0337C249.274 48.5423 248.838 48.9783 248.368 49.2689C247.898 49.5595 247.428 49.8138 246.924 49.9592C246.421 50.1045 245.716 50.2135 244.843 50.2135C244.541 50.2135 244.138 50.2135 243.635 50.2135C242.963 50.2135 242.56 50.1771 242.359 50.1771C242.057 50.1771 241.553 50.1772 240.815 50.2498V50.2135ZM243.064 49.3416C243.601 49.4505 244.172 49.4869 244.742 49.4869C245.313 49.4869 245.884 49.4142 246.354 49.3052C246.824 49.1962 247.227 49.0146 247.562 48.7966C247.898 48.5786 248.2 48.288 248.502 47.8883C248.804 47.4887 249.039 46.9438 249.207 46.3261C249.375 45.7085 249.476 45.0546 249.476 44.3643C249.476 43.3834 249.308 42.5478 248.972 41.8575C248.636 41.1673 248.166 40.6223 247.529 40.259C246.891 39.8957 246.018 39.714 244.877 39.714C244.306 39.714 243.702 39.7504 243.064 39.8594C243.064 40.1137 243.064 40.586 243.03 41.2036V42.3298V45.4542V47.8883C243.03 48.2516 243.064 48.7239 243.097 49.3052L243.064 49.3416Z" fill="#242424"/>
<path d="M253.134 48.4333C253.369 48.4333 253.571 48.506 253.739 48.724C253.906 48.9056 254.007 49.1236 254.007 49.3779C254.007 49.6322 253.94 49.8502 253.739 50.0319C253.571 50.2135 253.369 50.2862 253.134 50.2862C252.899 50.2862 252.698 50.2135 252.53 50.0319C252.362 49.8502 252.261 49.6322 252.261 49.3779C252.261 49.1236 252.362 48.9056 252.53 48.724C252.698 48.5423 252.899 48.4333 253.134 48.4333Z" fill="#242424"/>
</g>
<g clip-path="url(#clip1_5201_174)">
<path d="M33.0318 52.073V48.9739C40.5455 46.5321 45.9208 40.0169 46.9605 32.3042H43.5344C42.4593 38.9134 37.5684 44.3838 30.8817 46.0743L29.5585 46.3091L29.5939 52.7421C28.6488 52.8595 27.7273 52.93 26.7704 52.93C25.9671 52.93 25.1755 52.883 24.3958 52.8126L24.3722 46.3795L22.8836 46.1917C16.0315 44.6773 10.8452 39.0425 9.72288 32.2925H6.29684C7.39553 40.2282 13.1726 46.9664 20.9934 49.1969V52.1904C11.684 49.8426 4.58381 41.9656 3.44967 32.2925H0C1.38223 45.7573 12.8536 56.2991 26.7704 56.2991C40.6872 56.2991 52.1586 45.7573 53.5408 32.2925H50.103C48.9806 41.7895 42.1167 49.5608 33.0436 52.0613L33.0318 52.073Z" fill="#242424"/>
<path d="M32.7356 10.0937V6.98286C41.9977 9.37765 48.8025 17.1138 50.0548 26.4816H53.4809C52.1813 15.2707 43.9352 6.04372 32.7474 3.53154V0.279785H29.345V11.3029V12.6998L30.6445 13.0285C37.343 14.6251 42.2812 19.9546 43.4863 26.4934H46.9241C45.7545 18.8159 40.3083 12.4298 32.7474 10.1055L32.7356 10.0937Z" fill="#242424"/>
<path d="M24.0992 0.327413L20.6967 0.350891V3.55569C9.568 6.10309 1.3573 15.3183 0.0695801 26.4823H3.49563C4.73609 17.1497 11.4937 9.43702 20.7086 7.00701V10.0357C13.0413 12.3131 7.52418 18.7227 6.3546 26.4823H9.79246C10.9975 19.8849 15.9948 14.5436 22.776 12.9822L24.0992 12.7944L24.1228 0.315674L24.0992 0.327413Z" fill="#242424"/>
<path d="M30.6581 42.4592C31.7214 42.4592 32.8201 42.5649 32.9618 41.7549C33.1036 40.9449 32.253 40.7688 32.253 40.7688C28.8506 40.7688 28.9569 39.0784 28.9569 39.0784C28.9569 39.0784 28.9097 35.8383 28.9097 29.5109C28.9097 23.1835 29.0042 20.2605 31.9458 20.2605C35.1474 20.2605 35.7263 24.51 36.2225 26.2005C36.7187 27.8909 38.3608 27.6796 38.3608 27.1866C38.3608 26.6935 38.3608 18.1826 38.3608 18.1826H15.0046C15.0046 18.1826 15.0046 26.6935 15.0046 27.1866C15.0046 27.6796 16.6468 27.8909 17.143 26.2005C17.6392 24.51 18.2298 20.2605 21.4196 20.2605C24.3613 20.2605 24.4558 23.1835 24.4558 29.5109C24.4558 35.8383 24.5031 39.0784 24.5031 39.0784C24.5031 39.0784 24.5031 40.7688 21.1006 40.7688C21.1006 40.7688 20.25 40.9449 20.3918 41.7549C20.5336 42.5649 21.6323 42.4592 22.6955 42.4592H30.6463H30.6581Z" fill="#242424"/>
</g>
<g clip-path="url(#clip2_5201_174)">
<path d="M91.6956 12.7454V11.2262H77.6885V8.99609H76.1662V11.2262H62.2568V12.7454H76.1662V14.4738H67.438C65.9995 14.4738 64.8404 15.6306 64.8404 17.0523V20.6762C64.8404 22.0979 65.9995 23.2548 67.438 23.2548H75.5797C73.4151 24.4952 67.8429 27.5059 62.2568 29.1645L63.6813 30.3074C68.9741 28.607 73.9737 25.9309 76.1662 24.6764V31.1298H77.6885V24.6904C79.881 25.9448 84.8806 28.6209 90.1734 30.3353L91.6118 29.1784C86.0118 27.5198 80.4257 24.4952 78.275 23.2548H86.4447C87.8691 23.2548 89.0422 22.0979 89.0422 20.6762V17.0523C89.0422 15.6306 87.8831 14.4738 86.4447 14.4738H77.7024V12.7454H91.7096H91.6956ZM76.1662 21.7076H67.2285C66.7537 21.7076 66.3626 21.3313 66.3626 20.8435V19.6727H76.1523V21.6937L76.1662 21.7076ZM76.1662 18.1534H66.3626V16.8432C66.3626 16.3693 66.7537 15.9791 67.2285 15.9791H76.1523V18.1534H76.1662ZM87.4781 20.8435C87.4781 21.3174 87.0871 21.7076 86.6123 21.7076H77.6885V19.6866H87.4781V20.8574V20.8435ZM86.6123 15.993C87.0871 15.993 87.4781 16.3833 87.4781 16.8572V18.1674H77.6885V15.993H86.6123Z" fill="#242424"/>
<path d="M104.291 14.4877H95.0322V16.0069H104.291V24.4116C100.786 26.2654 96.9734 27.3944 95.1439 27.8683L96.1913 29.1645C98.1046 28.6349 101.219 27.6592 104.277 26.126V31.1437H105.799V8.99609H104.277V14.4877H104.291Z" fill="#242424"/>
<path d="M199.759 13.8605H204.381V12.3412H199.759V8.99609H198.236V12.3412H193.418V13.8605H198.236V16.1742C196.561 19.143 194.661 21.4707 193.572 22.753L194.829 23.7426C195.695 22.6972 196.98 21.0247 198.236 19.1012V31.1437H199.759V19.3382C200.862 20.8295 201.937 22.1118 202.803 23.0596L203.864 21.9724C202.719 20.6901 201.169 18.8224 199.759 16.676V13.8605Z" fill="#242424"/>
<path d="M213.977 13.5538H220.275V12.0346H213.977V8.99609H212.454V12.0346H208.027C208.544 10.9614 209.019 9.91601 209.424 8.99609L207.776 9.02397C206.896 11.0032 205.765 13.3448 204.438 15.5888L205.709 16.453C206.282 15.4912 206.812 14.5156 207.301 13.5399H212.482V18.0977H203.852V19.6169H212.482V20.1326C210.625 22.0143 207.567 24.9134 204.173 27.3804L205.234 28.4815C208.069 26.4187 210.625 24.091 212.482 22.2791V31.1158H214.005V22.7251C215.806 24.4674 218.18 26.586 220.792 28.4815L221.853 27.3804C218.725 25.1085 215.876 22.4603 214.005 20.5926V19.6309H222.132V18.1116H214.005V13.5538H213.977Z" fill="#242424"/>
<path d="M122.294 28.6906C122.294 29.1645 121.902 29.5408 121.428 29.5408H114.557C114.082 29.5408 113.691 29.1645 113.691 28.6906V18.1255C118.299 16.1324 122.266 13.08 123.383 12.174L122.028 11.3098C120.66 12.3691 117.406 14.7525 113.691 16.453V8.99609H112.169V28.5094C112.169 29.945 113.328 31.088 114.766 31.088H121.246C122.671 31.088 123.83 29.9311 123.83 28.5094V23.6032H122.28V28.6767L122.294 28.6906Z" fill="#242424"/>
<path d="M143.032 13.0939H155.601V11.5886H128.704V13.0939H141.51V27.5895H127.405V29.1088H156.899V27.5895H143.032V13.0939Z" fill="#242424"/>
<path d="M189.088 23.5893H175.277V22.07H186.924V20.5508H175.277V19.0315H187.357V17.5123H179.522L181.463 15.0313H188.642V13.512H182.65L185.038 10.4596L183.837 9.52574L180.723 13.512H178.447V8.99609H176.925V13.512H172.232V8.99609H170.71V13.512H168.308L165.194 9.52574L163.993 10.4596L166.381 13.512H160.488V15.0313H167.568L169.509 17.5123H161.772V19.0315H173.755V20.5508H162.205V22.07H173.755V23.5893H160.055V25.1085H170.543C167.819 26.1817 163.811 27.5616 159.803 28.3561L160.767 29.7081C166.353 28.5233 171.688 26.3351 173.755 25.4291V30.9764H175.277V25.4988C177.455 26.4466 182.664 28.5512 188.125 29.7081L189.088 28.3561C185.08 27.5616 181.072 26.1817 178.349 25.1085H189.088V23.5893ZM171.436 17.5123L169.495 15.0313H179.536L177.595 17.5123H171.45H171.436Z" fill="#242424"/>
<path d="M242.548 26.2654C240.244 26.8089 237.87 27.1713 235.691 27.4083V19.6308H241.934V18.1116H227.773V19.6308H234.169V27.5616C229.84 27.9658 226.544 27.91 226.488 27.91V29.4293C226.488 29.4293 226.656 29.4293 226.921 29.4293C228.765 29.4293 236.068 29.3178 242.884 27.7288L242.534 26.2514L242.548 26.2654Z" fill="#242424"/>
<path d="M255.035 13.4563H244.938C244.421 11.3934 244.1 9.76269 243.96 8.99609H242.424C242.522 9.5118 242.815 11.1844 243.36 13.4563H225.75V14.9755H243.737C245.036 19.9375 247.326 26.7671 250.859 30.8789C251.013 31.0461 251.222 31.1437 251.446 31.1437C251.488 31.1437 251.53 31.1437 251.572 31.1437C251.837 31.088 252.06 30.9207 252.158 30.6698L254.798 23.8123C254.951 23.422 254.756 22.976 254.365 22.8227C253.974 22.6694 253.527 22.8645 253.387 23.2687L251.222 28.8857C248.457 25.0946 246.53 19.4078 245.357 15.0034H255.063V13.4842L255.035 13.4563Z" fill="#242424"/>
<path d="M252.661 11.2262L248.499 8.99609L247.787 10.3481L251.949 12.5642L252.661 11.2262Z" fill="#242424"/>
<path d="M312.376 29.053V14.9755H319.233V13.4563H312.376V8.99609H310.854V13.4563H304.625V14.9755H310.854V29.053H302.028V30.5722H320.001V29.053H312.376Z" fill="#242424"/>
<path d="M303.465 23.8402L304.247 22.5439L298.34 18.92V18.8782C301.957 15.2125 302.585 13.1357 302.613 13.0242C302.669 12.8012 302.627 12.5503 302.487 12.3552C302.348 12.16 302.124 12.0625 301.887 12.0625H298.577V8.99609H297.055V12.0346H291.231V13.5399H300.672C299.792 15.0592 297.418 18.2789 291.371 22.8784L292.293 24.091C294.094 22.7251 295.588 21.4707 296.817 20.3278V31.3807H298.34V20.6762L303.465 23.8262V23.8402Z" fill="#242424"/>
<path d="M282.547 16.4949H263.819V18.0141H282.547V16.4949Z" fill="#242424"/>
<path d="M287.308 22.0698V20.5505H258.93V22.0698H268.804L262.324 29.234C262.114 29.457 262.073 29.8054 262.212 30.0842C262.338 30.349 262.603 30.5023 262.897 30.5023H262.952L284.096 29.011L285.953 31.0877L287.098 30.0842L280.395 22.5576L279.25 23.5612L282.825 27.5614L264.726 28.8298L270.857 22.0419H287.308V22.0698Z" fill="#242424"/>
<path d="M273.176 9.87419C278.385 13.7629 284.586 16.0209 286.499 16.676L287.197 15.31C285.829 14.8501 280.424 12.9406 275.564 9.693H275.55C274.866 9.24698 274.056 8.99609 273.19 8.99609C272.324 8.99609 271.458 9.26092 270.76 9.72087C265.9 12.9545 260.524 14.864 259.169 15.31L259.867 16.676C261.78 16.0348 267.981 13.7629 273.19 9.87419H273.176Z" fill="#242424"/>
</g>
<defs>
<clipPath id="clip0_5201_174">
<rect width="191.751" height="13.6965" fill="white" transform="translate(62.2568 38.8789)"/>
</clipPath>
<clipPath id="clip1_5201_174">
<rect width="53.5408" height="56.0311" fill="white" transform="translate(0 0.279785)"/>
</clipPath>
<clipPath id="clip2_5201_174">
<rect width="257.743" height="22.4124" fill="white" transform="translate(62.2568 8.99609)"/>
</clipPath>
</defs>
</svg>
