<svg width="168" height="118" viewBox="0 0 168 118" fill="none" xmlns="http://www.w3.org/2000/svg">
<g clip-path="url(#clip0_3201_1704)">
<path d="M21.7301 110.178H21.446C21.446 109.374 21.446 108.806 21.4023 108.499C21.7519 108.499 22.2762 108.522 22.9972 108.546C23.5871 108.546 23.9804 108.546 24.177 108.546C24.3955 108.546 24.8761 108.546 25.6626 108.522C26.2306 108.522 26.6239 108.499 26.8861 108.475C26.8424 108.853 26.8205 109.421 26.7987 110.154H26.4928L26.4491 109.657C26.4273 109.374 26.4054 109.185 26.4054 109.161C26.4054 109.114 26.3836 109.09 26.3617 109.066C26.3617 109.066 26.318 109.043 26.2743 109.019C26.2306 109.019 26.0777 109.019 25.8155 108.972C25.5534 108.972 25.3349 108.972 25.182 108.972H24.6139C24.5921 109.303 24.5702 109.728 24.5702 110.296V113.275C24.5702 113.724 24.5702 114.173 24.5702 114.623C24.5702 114.93 24.5921 115.143 24.6358 115.19C24.6795 115.261 24.7232 115.285 24.8106 115.332C24.8979 115.356 25.1164 115.379 25.4878 115.379V115.71C24.9198 115.687 24.5047 115.663 24.2207 115.663C24.0896 115.663 23.6089 115.663 22.7569 115.71V115.379C23.1283 115.379 23.3468 115.379 23.4342 115.332C23.5216 115.308 23.5652 115.261 23.6089 115.214C23.6526 115.143 23.6745 114.977 23.6745 114.717C23.6745 114.646 23.6745 114.173 23.6745 113.275V110.319C23.6745 110.178 23.6745 110.012 23.6745 109.847V108.995H22.9535C22.5384 108.995 22.2325 108.995 21.9922 109.043C21.9267 109.043 21.8611 109.066 21.8393 109.114C21.7956 109.185 21.7738 109.35 21.7519 109.657L21.7082 110.178H21.7301Z" fill="#242424"/>
<path d="M27.1055 112.164C27.1055 111.62 27.171 111.147 27.3239 110.675C27.4769 110.225 27.7172 109.8 28.0668 109.445C28.4163 109.09 28.8096 108.807 29.2465 108.618C29.6835 108.428 30.186 108.357 30.754 108.357C31.2783 108.357 31.7371 108.428 32.1523 108.594C32.5674 108.759 32.9169 108.949 33.2009 109.232C33.4631 109.492 33.6816 109.776 33.8345 110.083C33.9437 110.32 34.053 110.58 34.1185 110.887C34.1841 111.195 34.2278 111.526 34.2278 111.88C34.2278 113.015 33.8782 113.985 33.1572 114.741C32.4581 115.498 31.5624 115.876 30.47 115.876C29.9675 115.876 29.5087 115.805 29.0936 115.616C28.6566 115.451 28.3071 115.191 28.0231 114.836C27.7172 114.505 27.4987 114.079 27.3458 113.606C27.1929 113.11 27.1055 112.637 27.1055 112.164ZM28.0886 111.739C28.0886 112.07 28.1105 112.377 28.176 112.708C28.2415 113.039 28.3071 113.323 28.3945 113.559C28.5474 113.961 28.744 114.316 28.9844 114.576C29.2247 114.86 29.5087 115.049 29.7927 115.191C30.0986 115.332 30.4263 115.38 30.7759 115.38C31.2783 115.38 31.7153 115.238 32.0867 114.978C32.4581 114.718 32.7421 114.339 32.9169 113.843C33.0917 113.346 33.1791 112.803 33.1791 112.164C33.1791 111.62 33.1135 111.124 32.9825 110.675C32.8951 110.391 32.7858 110.131 32.6547 109.918C32.5237 109.681 32.3489 109.492 32.1741 109.327C31.9993 109.161 31.7371 109.019 31.4531 108.901C31.1473 108.783 30.8414 108.736 30.4918 108.736C29.9893 108.736 29.5524 108.854 29.181 109.09C28.8096 109.327 28.5256 109.681 28.3289 110.131C28.1323 110.58 28.0449 111.1 28.0449 111.691L28.0886 111.739Z" fill="#242424"/>
<path d="M34.4675 108.831V108.5H35.9095H37.2203V108.831C36.8489 108.831 36.6304 108.855 36.543 108.878C36.4556 108.902 36.412 108.949 36.3683 108.997C36.3246 109.067 36.3027 109.233 36.3027 109.493C36.3027 109.564 36.3027 110.037 36.2809 110.935V111.645C36.8926 111.668 37.6573 111.668 38.5312 111.668C39.2084 111.668 39.7546 111.668 40.1697 111.645V110.935C40.1697 110.462 40.1697 110.037 40.1697 109.588C40.1697 109.257 40.126 109.067 40.1042 109.02C40.0605 108.949 40.0168 108.926 39.9294 108.878C39.842 108.855 39.6235 108.831 39.2521 108.831V108.5C39.9294 108.524 40.3882 108.524 40.6285 108.524C40.7159 108.524 41.1747 108.524 42.0049 108.5V108.831C41.6335 108.831 41.415 108.855 41.3276 108.878C41.2403 108.902 41.1966 108.949 41.1747 108.997C41.131 109.067 41.1092 109.233 41.0873 109.493C41.0873 109.564 41.0873 110.037 41.0873 110.935V113.3C41.0873 113.749 41.0873 114.198 41.0873 114.647C41.0873 114.955 41.1092 115.168 41.1529 115.215C41.1966 115.286 41.2403 115.309 41.3276 115.357C41.3932 115.38 41.6335 115.404 42.0049 115.404V115.735C41.3932 115.711 40.9125 115.688 40.5193 115.688C40.1042 115.688 39.6891 115.688 39.2521 115.735V115.404C39.6235 115.404 39.842 115.404 39.9294 115.357C40.0168 115.333 40.0605 115.286 40.1042 115.239C40.1479 115.191 40.1697 115.002 40.1697 114.742C40.1697 114.671 40.1697 114.198 40.1697 113.3V112.141C39.2958 112.141 38.6186 112.118 38.1816 112.118C37.6791 112.118 37.0455 112.118 36.2809 112.141V113.3C36.2809 113.749 36.2809 114.198 36.2809 114.624C36.2809 114.931 36.3246 115.144 36.3464 115.191C36.3901 115.262 36.4338 115.286 36.5212 115.333C36.6086 115.357 36.8271 115.38 37.1985 115.38V115.711C36.7834 115.688 36.3464 115.664 35.8876 115.664C35.407 115.664 34.9263 115.664 34.4238 115.711V115.38C34.7952 115.38 35.0137 115.38 35.1011 115.333C35.1885 115.309 35.2322 115.262 35.2759 115.215C35.3196 115.144 35.3414 114.978 35.3414 114.718C35.3414 114.647 35.3414 114.175 35.3633 113.276V110.912C35.3633 110.439 35.3633 110.013 35.3633 109.564C35.3633 109.233 35.3196 109.044 35.2977 108.997C35.254 108.926 35.2103 108.902 35.1229 108.855C35.0356 108.831 34.8171 108.807 34.4457 108.807L34.4675 108.831Z" fill="#242424"/>
<path d="M42.2679 112.164C42.2679 111.62 42.3335 111.147 42.4864 110.675C42.6393 110.225 42.8797 109.8 43.2292 109.445C43.5788 109.09 43.9721 108.807 44.3872 108.618C44.8241 108.428 45.3266 108.357 45.8728 108.357C46.3971 108.357 46.8559 108.428 47.2929 108.594C47.708 108.759 48.0575 108.949 48.3416 109.232C48.6037 109.492 48.8222 109.776 48.9751 110.083C49.0844 110.32 49.1936 110.58 49.2592 110.887C49.3247 111.195 49.3684 111.526 49.3684 111.88C49.3684 113.015 49.0188 113.985 48.2979 114.741C47.5987 115.498 46.703 115.876 45.6106 115.876C45.13 115.876 44.6493 115.805 44.2342 115.616C43.7973 115.451 43.4477 115.191 43.1637 114.836C42.8578 114.505 42.6393 114.079 42.4864 113.606C42.3335 113.11 42.2461 112.637 42.2461 112.164H42.2679ZM43.2511 111.739C43.2511 112.07 43.2729 112.377 43.3385 112.708C43.404 113.039 43.4696 113.323 43.5569 113.559C43.7099 113.961 43.9065 114.316 44.1468 114.576C44.3872 114.86 44.6712 115.049 44.9552 115.191C45.2611 115.332 45.5888 115.38 45.9383 115.38C46.4408 115.38 46.8778 115.238 47.2492 114.978C47.6206 114.718 47.9046 114.339 48.0794 113.843C48.2542 113.346 48.3634 112.803 48.3634 112.164C48.3634 111.62 48.2979 111.124 48.1668 110.675C48.1012 110.391 47.9701 110.131 47.8391 109.918C47.708 109.681 47.555 109.492 47.3584 109.327C47.1836 109.161 46.9433 109.019 46.6374 108.901C46.3316 108.783 46.0257 108.736 45.6762 108.736C45.1737 108.736 44.7367 108.854 44.3653 109.09C43.9939 109.327 43.7099 109.681 43.5133 110.131C43.3166 110.58 43.2292 111.1 43.2292 111.691L43.2511 111.739Z" fill="#242424"/>
<path d="M52.3817 115.404V115.735L50.9616 115.688C50.9616 115.688 50.4373 115.688 49.6289 115.735V115.404C50.0003 115.404 50.2188 115.404 50.3062 115.357C50.3936 115.333 50.4373 115.286 50.481 115.239C50.5247 115.168 50.5465 115.002 50.5465 114.742C50.5465 114.671 50.5465 114.198 50.5465 113.3V110.935C50.5465 110.462 50.5465 110.037 50.5465 109.588C50.5465 109.257 50.5028 109.067 50.481 109.02C50.4373 108.949 50.3936 108.926 50.3062 108.878C50.2188 108.855 50.0003 108.831 49.6289 108.831V108.5C50.2406 108.524 50.6994 108.524 51.0271 108.524C51.3549 108.524 51.7918 108.524 52.3817 108.5V108.831C52.0103 108.831 51.7918 108.855 51.7044 108.878C51.617 108.902 51.5733 108.949 51.5515 108.997C51.5078 109.067 51.4859 109.233 51.4641 109.493C51.4641 109.564 51.4641 110.037 51.4423 110.935V111.976C51.617 111.881 51.8137 111.716 52.054 111.456L52.6439 110.841L53.6925 109.706C54.0858 109.257 54.348 108.973 54.4354 108.855V108.5C54.8068 108.5 55.1126 108.5 55.3093 108.5C55.5277 108.5 55.7899 108.5 56.0521 108.5V108.831C55.7462 108.831 55.5496 108.831 55.4622 108.878C55.353 108.902 55.2656 108.949 55.1563 109.02C54.9597 109.186 54.6538 109.469 54.2387 109.871L52.3598 111.739L55.1782 114.6C55.637 115.049 55.8991 115.309 55.9647 115.357C56.0302 115.404 56.1395 115.404 56.3142 115.428V115.735C56.0084 115.735 55.8118 115.735 55.7025 115.735C55.5933 115.735 55.353 115.735 54.9815 115.735C54.916 115.664 54.6538 115.38 54.195 114.908L53.7144 114.411L51.5733 112.236L51.4641 112.307V113.3C51.4641 113.749 51.4641 114.198 51.4859 114.647C51.4859 114.955 51.5078 115.144 51.5515 115.215C51.5952 115.286 51.6389 115.309 51.7263 115.357C51.8137 115.38 52.0321 115.404 52.4035 115.404H52.3817Z" fill="#242424"/>
<path d="M56.3145 108.831V108.5C56.8169 108.524 57.2976 108.524 57.7345 108.524C58.1715 108.524 58.6303 108.524 59.0672 108.5V108.831C58.6958 108.831 58.4774 108.855 58.39 108.878C58.3026 108.902 58.2589 108.949 58.2152 108.997C58.1715 109.067 58.1496 109.233 58.1278 109.493C58.1278 109.564 58.1278 110.037 58.1278 110.935V112.827C58.1278 113.536 58.1715 114.033 58.2589 114.269C58.3463 114.506 58.4774 114.695 58.674 114.86C58.8269 114.978 59.0017 115.049 59.2639 115.144C59.5042 115.215 59.7882 115.239 60.0722 115.239C60.4218 115.239 60.7277 115.191 61.0117 115.097C61.2957 115.002 61.4923 114.884 61.6234 114.766C61.7545 114.624 61.8637 114.482 61.9293 114.316C61.9948 114.151 62.0385 113.914 62.0604 113.631C62.1041 113.347 62.104 112.969 62.104 112.519V110.959C62.104 110.486 62.1041 110.061 62.0822 109.611C62.0822 109.28 62.0604 109.091 62.0167 109.044C61.973 108.973 61.9293 108.949 61.8419 108.902C61.7545 108.878 61.536 108.855 61.1646 108.855V108.5C61.6889 108.524 62.0604 108.524 62.3007 108.524C62.5192 108.524 62.9124 108.524 63.4804 108.5V108.831C63.109 108.831 62.8906 108.855 62.8032 108.878C62.7158 108.902 62.6721 108.949 62.6284 108.997C62.5847 109.067 62.5628 109.233 62.5628 109.493C62.5628 109.564 62.5628 110.037 62.5628 110.935V112.638C62.5628 113.465 62.5192 114.056 62.4099 114.387C62.3007 114.718 62.1041 115.002 61.82 115.262C61.6016 115.451 61.3175 115.593 60.9898 115.711C60.6403 115.806 60.2689 115.877 59.8538 115.877C59.3731 115.877 58.958 115.806 58.6084 115.688C58.2589 115.57 57.9749 115.404 57.8001 115.191C57.6253 114.978 57.4942 114.789 57.4068 114.577C57.3194 114.293 57.2757 113.844 57.2757 113.182V110.935C57.2757 110.462 57.2757 110.037 57.2757 109.588C57.2757 109.257 57.2539 109.067 57.2102 109.02C57.1665 108.949 57.1228 108.926 57.0354 108.878C56.948 108.855 56.7296 108.831 56.3581 108.831H56.3145Z" fill="#242424"/>
<path d="M69.5985 115.404V115.735L68.1784 115.688C68.1784 115.688 67.6322 115.688 66.8457 115.735V115.404C67.2171 115.404 67.4356 115.404 67.523 115.357C67.6104 115.333 67.6759 115.286 67.6978 115.239C67.7415 115.168 67.7633 115.002 67.7633 114.742C67.7633 114.671 67.7633 114.198 67.7851 113.3V110.935C67.7851 110.462 67.7851 110.037 67.7851 109.588C67.7851 109.257 67.7633 109.067 67.7196 109.02C67.6759 108.949 67.6322 108.926 67.5448 108.878C67.4574 108.855 67.239 108.831 66.8676 108.831V108.5C67.4793 108.524 67.9381 108.524 68.2658 108.524C68.5935 108.524 69.0305 108.524 69.6203 108.5V108.831C69.2489 108.831 69.0305 108.855 68.9431 108.878C68.8557 108.902 68.812 108.949 68.7683 108.997C68.7246 109.067 68.7027 109.233 68.7027 109.493C68.7027 109.564 68.7027 110.037 68.6809 110.935V111.976C68.8557 111.881 69.0523 111.716 69.2926 111.456L69.8825 110.841L70.9312 109.706C71.3463 109.257 71.5866 108.973 71.674 108.855V108.5C72.0454 108.5 72.3513 108.5 72.5479 108.5C72.7664 108.5 73.0286 108.5 73.2907 108.5V108.831C72.9849 108.831 72.7882 108.831 72.679 108.878C72.5698 108.902 72.4824 108.949 72.3731 109.02C72.1765 109.186 71.8706 109.469 71.4555 109.871L69.5766 111.739L72.395 114.6C72.8538 115.049 73.1159 115.309 73.1596 115.357C73.2252 115.404 73.3344 115.404 73.5311 115.428V115.735C73.2252 115.735 73.0067 115.735 72.9193 115.735C72.8101 115.735 72.5479 115.735 72.1765 115.735C72.111 115.664 71.8488 115.38 71.39 114.908L70.9093 114.411L68.7683 112.236L68.659 112.307V113.3C68.659 113.749 68.659 114.198 68.6809 114.647C68.6809 114.955 68.7027 115.144 68.7464 115.215C68.7901 115.286 68.8338 115.309 68.9212 115.357C69.0086 115.38 69.2271 115.404 69.5985 115.404Z" fill="#242424"/>
<path d="M73.5945 112.164C73.5945 111.62 73.6819 111.147 73.8129 110.675C73.9659 110.225 74.2062 109.8 74.5558 109.445C74.9053 109.09 75.2986 108.807 75.7355 108.618C76.1725 108.428 76.6531 108.357 77.2212 108.357C77.7455 108.357 78.2043 108.428 78.6194 108.594C79.0564 108.759 79.3841 108.949 79.6681 109.232C79.9521 109.492 80.1487 109.776 80.3017 110.083C80.4109 110.32 80.5201 110.58 80.5857 110.887C80.6512 111.195 80.6731 111.526 80.6731 111.88C80.6731 113.015 80.3235 113.985 79.6025 114.741C78.9034 115.498 78.0077 115.876 76.9153 115.876C76.4347 115.876 75.954 115.805 75.5389 115.616C75.1238 115.451 74.7524 115.191 74.4684 114.836C74.1844 114.505 73.944 114.079 73.7911 113.606C73.6382 113.11 73.5508 112.637 73.5508 112.164H73.5945ZM74.5776 111.739C74.5776 112.07 74.6213 112.377 74.665 112.708C74.7305 113.039 74.7961 113.323 74.8835 113.559C75.0364 113.961 75.233 114.316 75.4734 114.576C75.7137 114.86 75.9977 115.049 76.2817 115.191C76.5876 115.332 76.9153 115.38 77.2867 115.38C77.7892 115.38 78.2262 115.238 78.5976 114.978C78.969 114.718 79.253 114.339 79.4278 113.843C79.6025 113.346 79.7118 112.803 79.7118 112.164C79.7118 111.62 79.6462 111.124 79.5152 110.675C79.4278 110.391 79.3185 110.131 79.1874 109.918C79.0564 109.681 78.9034 109.492 78.7068 109.327C78.532 109.161 78.2698 109.019 77.9858 108.901C77.68 108.783 77.3741 108.736 77.0245 108.736C76.522 108.736 76.0851 108.854 75.7137 109.09C75.3423 109.327 75.0583 109.681 74.8616 110.131C74.6868 110.58 74.5776 111.1 74.5776 111.691V111.739Z" fill="#242424"/>
<path d="M87.4248 115.332C86.966 115.521 86.5509 115.64 86.2668 115.711C85.7207 115.829 85.2182 115.876 84.7375 115.876C84.0165 115.876 83.383 115.734 82.7931 115.427C82.2251 115.119 81.7881 114.694 81.4822 114.126C81.1764 113.583 81.0234 112.921 81.0234 112.164C81.0234 111.502 81.1327 110.934 81.3511 110.485C81.5696 110.036 81.8536 109.658 82.1814 109.35C82.5091 109.043 82.8368 108.83 83.1645 108.688C83.667 108.475 84.3006 108.381 85.0434 108.381C85.3929 108.381 85.7643 108.428 86.1358 108.499C86.5072 108.57 86.9441 108.688 87.4248 108.83C87.3811 109.019 87.3374 109.185 87.3155 109.35C87.2937 109.516 87.2718 109.847 87.2281 110.367H86.9441V109.776C86.9441 109.776 86.9223 109.634 86.9004 109.563C86.9004 109.516 86.8786 109.445 86.8349 109.35C86.7475 109.232 86.6164 109.114 86.4198 109.019C86.0921 108.877 85.8517 108.806 85.6333 108.759C85.4366 108.712 85.1745 108.688 84.8904 108.688C84.3006 108.688 83.7762 108.83 83.3393 109.09C82.9023 109.374 82.5746 109.752 82.3561 110.272C82.1377 110.793 82.0066 111.336 82.0066 111.951C82.0066 112.613 82.1377 113.204 82.3998 113.748C82.662 114.268 83.0116 114.694 83.4485 114.978C83.8855 115.261 84.4098 115.403 84.9778 115.403C85.2619 115.403 85.524 115.379 85.7862 115.309C86.0484 115.261 86.2668 115.167 86.4416 115.072C86.4635 114.93 86.4853 114.717 86.4853 114.434V113.866C86.4853 113.559 86.4853 113.393 86.4416 113.346C86.4198 113.299 86.3324 113.252 86.2231 113.228C86.0921 113.204 85.808 113.181 85.3711 113.181V112.873L86.8349 112.921C87.1189 112.921 87.4029 112.921 87.7088 112.873L87.7525 113.11L87.4029 113.322C87.3592 113.677 87.3592 114.032 87.3592 114.316C87.3592 114.599 87.3592 114.954 87.4029 115.309L87.4248 115.332Z" fill="#242424"/>
<path d="M87.9711 108.949V108.642L89.1071 108.405C89.2382 108.453 89.3256 108.5 89.3693 108.547C89.413 108.594 89.5222 108.713 89.6752 108.925C89.8937 109.256 90.1558 109.682 90.4398 110.25C90.7239 110.817 91.0516 111.432 91.3793 112.165C91.707 111.621 92.0566 111.006 92.3843 110.368L93.3893 108.523H94.1102V108.665C93.9354 108.878 93.6296 109.327 93.1489 110.013C92.8868 110.415 92.5372 110.982 92.1221 111.763C91.8599 112.236 91.707 112.519 91.6633 112.638C91.6196 112.732 91.6196 112.85 91.6196 112.945V113.347C91.6196 113.796 91.6196 114.245 91.6196 114.695C91.6196 115.002 91.6414 115.191 91.6851 115.262C91.7288 115.333 91.7944 115.357 91.8599 115.404C91.9473 115.428 92.1658 115.451 92.5372 115.451V115.782C92.0347 115.759 91.5978 115.735 91.2045 115.735C90.8549 115.735 90.3743 115.735 89.7844 115.782V115.451C90.1558 115.451 90.3743 115.451 90.4617 115.404C90.5491 115.38 90.5928 115.333 90.6146 115.286C90.6583 115.215 90.6802 115.049 90.702 114.789C90.702 114.718 90.702 114.245 90.7239 113.347V112.756C90.6583 112.614 90.5928 112.472 90.5272 112.354C90.4835 112.283 90.3306 111.976 90.0466 111.479L89.7407 110.935C89.5004 110.486 89.3256 110.202 89.1945 110.013C88.9542 109.658 88.7794 109.398 88.6265 109.256C88.5391 109.186 88.4517 109.115 88.3643 109.067C88.2769 109.044 88.1458 109.02 87.9492 109.02L87.9711 108.949Z" fill="#242424"/>
<path d="M94.3066 112.164C94.3066 111.62 94.3722 111.147 94.5251 110.675C94.6781 110.225 94.9184 109.8 95.2679 109.445C95.6175 109.09 96.0107 108.807 96.4477 108.618C96.8846 108.428 97.3871 108.357 97.9333 108.357C98.4577 108.357 98.9165 108.428 99.3316 108.594C99.7467 108.759 100.096 108.949 100.38 109.232C100.642 109.492 100.861 109.776 101.014 110.083C101.123 110.32 101.232 110.58 101.298 110.887C101.363 111.195 101.407 111.526 101.407 111.88C101.407 113.015 101.058 113.985 100.337 114.741C99.6374 115.498 98.7417 115.876 97.6493 115.876C97.1468 115.876 96.688 115.805 96.2729 115.616C95.8578 115.451 95.4864 115.191 95.2024 114.836C94.8965 114.505 94.6781 114.079 94.5251 113.606C94.3722 113.11 94.3066 112.637 94.3066 112.164ZM95.2898 111.739C95.2898 112.07 95.3116 112.377 95.3772 112.708C95.4427 113.039 95.5083 113.323 95.5956 113.559C95.7486 113.961 95.9452 114.316 96.1855 114.576C96.4259 114.86 96.7099 115.049 96.9939 115.191C97.2998 115.332 97.6275 115.38 97.9989 115.38C98.5014 115.38 98.9383 115.238 99.3097 114.978C99.6811 114.718 99.9652 114.339 100.14 113.843C100.315 113.346 100.424 112.803 100.424 112.164C100.424 111.62 100.358 111.124 100.227 110.675C100.14 110.391 100.031 110.131 99.8996 109.918C99.7685 109.681 99.6156 109.492 99.419 109.327C99.2442 109.161 99.0039 109.019 98.698 108.901C98.3921 108.783 98.0863 108.736 97.7367 108.736C97.2342 108.736 96.7973 108.854 96.4259 109.09C96.0544 109.327 95.7704 109.681 95.5738 110.131C95.3772 110.58 95.2898 111.1 95.2898 111.691V111.739Z" fill="#242424"/>
<path d="M111.72 114.836L111.546 115.309C111.174 115.498 110.825 115.663 110.475 115.734C110.125 115.829 109.754 115.876 109.339 115.876C108.858 115.876 108.4 115.805 107.984 115.687C107.569 115.545 107.198 115.356 106.892 115.12C106.564 114.86 106.324 114.599 106.127 114.292C105.931 113.985 105.778 113.654 105.669 113.299C105.559 112.944 105.516 112.542 105.516 112.117C105.516 111.029 105.865 110.131 106.564 109.421C107.263 108.712 108.203 108.357 109.426 108.357C109.71 108.357 109.973 108.357 110.213 108.405C110.453 108.452 110.737 108.499 111.109 108.618C111.458 108.712 111.677 108.783 111.742 108.783C111.677 108.972 111.633 109.161 111.589 109.327C111.546 109.611 111.502 109.942 111.48 110.32H111.196V109.729C111.152 109.398 110.978 109.138 110.672 108.972C110.366 108.807 109.907 108.736 109.317 108.736C108.88 108.736 108.487 108.807 108.181 108.925C107.875 109.043 107.591 109.232 107.351 109.492C107.11 109.752 106.914 110.06 106.761 110.438C106.608 110.816 106.542 111.313 106.542 111.904C106.542 112.944 106.826 113.772 107.416 114.387C108.006 115.001 108.749 115.332 109.71 115.332C110.147 115.332 110.541 115.261 110.912 115.143C111.174 115.072 111.414 114.93 111.655 114.741L111.742 114.836H111.72Z" fill="#242424"/>
<path d="M112.027 112.164C112.027 111.62 112.093 111.147 112.246 110.675C112.399 110.225 112.639 109.8 112.989 109.445C113.338 109.09 113.731 108.807 114.147 108.618C114.584 108.428 115.086 108.357 115.632 108.357C116.157 108.357 116.615 108.428 117.052 108.594C117.489 108.759 117.817 108.949 118.101 109.232C118.363 109.492 118.582 109.776 118.735 110.083C118.844 110.32 118.953 110.58 119.019 110.887C119.084 111.195 119.128 111.526 119.128 111.88C119.128 113.015 118.778 113.985 118.057 114.741C117.358 115.498 116.462 115.876 115.37 115.876C114.889 115.876 114.431 115.805 113.994 115.616C113.579 115.451 113.207 115.191 112.923 114.836C112.617 114.505 112.399 114.079 112.246 113.606C112.093 113.11 112.027 112.637 112.027 112.164ZM112.989 111.739C112.989 112.07 113.01 112.377 113.076 112.708C113.12 113.039 113.207 113.323 113.295 113.559C113.447 113.961 113.644 114.316 113.884 114.576C114.125 114.86 114.387 115.049 114.693 115.191C114.977 115.332 115.326 115.38 115.676 115.38C116.178 115.38 116.615 115.238 116.987 114.978C117.358 114.718 117.642 114.339 117.817 113.843C117.992 113.346 118.101 112.803 118.101 112.164C118.101 111.62 118.035 111.124 117.904 110.675C117.817 110.391 117.708 110.131 117.577 109.918C117.446 109.681 117.271 109.492 117.096 109.327C116.899 109.161 116.659 109.019 116.375 108.901C116.069 108.783 115.763 108.736 115.414 108.736C114.911 108.736 114.474 108.854 114.103 109.09C113.731 109.327 113.447 109.681 113.251 110.131C113.076 110.58 112.967 111.1 112.967 111.691L112.989 111.739Z" fill="#242424"/>
<path d="M120.349 114.575C120.502 114.575 120.633 114.623 120.743 114.765C120.852 114.883 120.896 115.025 120.896 115.19C120.896 115.356 120.852 115.497 120.721 115.616C120.612 115.734 120.48 115.781 120.328 115.781C120.175 115.781 120.044 115.734 119.934 115.616C119.825 115.497 119.76 115.356 119.76 115.19C119.76 115.025 119.825 114.883 119.934 114.765C120.044 114.646 120.175 114.575 120.328 114.575H120.349Z" fill="#242424"/>
<path d="M121.268 117.153C121.508 116.727 121.683 116.396 121.77 116.16C121.857 115.924 121.945 115.687 122.01 115.451C122.032 115.332 122.076 115.096 122.12 114.694L122.622 114.552C122.622 114.552 122.841 114.481 123.081 114.387L123.19 114.529C122.797 115.498 122.338 116.349 121.77 117.058L121.377 117.248L121.268 117.106V117.153Z" fill="#242424"/>
<path d="M126.423 115.735V115.475C126.62 115.38 126.729 115.286 126.794 115.239C126.838 115.215 126.838 115.168 126.86 115.12C126.882 115.026 126.904 114.813 126.904 114.506C126.904 114.033 126.925 113.749 126.925 113.678V110.935C126.925 110.462 126.925 110.037 126.925 109.588C126.925 109.257 126.904 109.067 126.86 109.02C126.816 108.949 126.772 108.926 126.685 108.878C126.598 108.855 126.379 108.831 126.008 108.831V108.5C126.772 108.524 127.253 108.524 127.428 108.524C127.625 108.524 128.083 108.524 128.782 108.5V108.831C128.411 108.831 128.193 108.855 128.105 108.878C128.018 108.902 127.974 108.949 127.952 108.997C127.909 109.067 127.887 109.233 127.887 109.493C127.887 109.564 127.887 110.037 127.865 110.935V114.34C127.865 114.695 127.865 114.978 127.887 115.215C128.236 115.239 128.608 115.262 128.957 115.262C129.853 115.262 130.465 115.215 130.814 115.073C130.858 114.978 130.88 114.86 130.924 114.718L131.12 113.867H131.426C131.36 114.364 131.295 114.978 131.229 115.64C131.098 115.664 131.011 115.688 130.924 115.688C130.771 115.688 130.508 115.688 130.159 115.688L127.384 115.64C127.078 115.64 126.772 115.64 126.467 115.688L126.423 115.735Z" fill="#242424"/>
<path d="M132.039 110.177H131.755C131.755 109.374 131.755 108.806 131.711 108.499C132.06 108.499 132.585 108.522 133.328 108.546C133.918 108.546 134.311 108.546 134.507 108.546C134.726 108.546 135.207 108.546 135.993 108.522C136.539 108.522 136.954 108.499 137.217 108.475C137.173 108.853 137.151 109.421 137.151 110.154H136.845L136.801 109.657C136.78 109.374 136.758 109.184 136.758 109.161C136.758 109.113 136.736 109.09 136.714 109.066C136.714 109.066 136.67 109.043 136.627 109.019C136.583 109.019 136.43 109.019 136.168 108.972C135.906 108.972 135.687 108.972 135.534 108.972H134.966C134.923 109.303 134.923 109.728 134.923 110.296V113.275C134.923 113.724 134.923 114.173 134.923 114.623C134.923 114.93 134.966 115.143 134.988 115.19C135.032 115.261 135.075 115.285 135.163 115.332C135.25 115.356 135.469 115.379 135.84 115.379V115.71C135.272 115.687 134.857 115.663 134.573 115.663C134.442 115.663 133.961 115.663 133.109 115.71V115.379C133.481 115.379 133.699 115.379 133.786 115.332C133.874 115.308 133.918 115.261 133.961 115.214C134.005 115.143 134.027 114.977 134.027 114.717C134.027 114.646 134.027 114.173 134.049 113.275V110.319C134.049 110.177 134.049 110.012 134.049 109.846L134.005 108.995H133.306C132.891 108.995 132.585 108.995 132.345 109.043C132.279 109.043 132.213 109.066 132.192 109.113C132.17 109.184 132.126 109.35 132.104 109.657L132.06 110.177H132.039Z" fill="#242424"/>
<path d="M137.611 115.735V115.499C137.785 115.38 137.938 115.286 138.069 115.191C138.069 114.955 138.091 114.647 138.113 114.222C138.135 113.536 138.157 113.04 138.157 112.78V110.699C138.157 110.368 138.157 109.99 138.135 109.54C138.135 109.257 138.113 109.067 138.069 109.02C138.069 108.973 138.004 108.949 137.96 108.926C137.851 108.878 137.632 108.855 137.305 108.855V108.5C137.763 108.5 138.157 108.524 138.506 108.524C138.768 108.524 139.14 108.524 139.599 108.5C140.057 108.5 140.429 108.5 140.691 108.5C141.456 108.5 142.089 108.595 142.548 108.807C143.029 109.02 143.422 109.375 143.75 109.871C144.077 110.368 144.23 110.983 144.23 111.692C144.23 112.212 144.143 112.685 144.012 113.134C143.859 113.583 143.64 113.985 143.378 114.316C143.116 114.647 142.832 114.931 142.526 115.12C142.22 115.309 141.915 115.475 141.587 115.57C141.259 115.664 140.8 115.735 140.232 115.735C140.036 115.735 139.773 115.735 139.446 115.735C139.009 115.735 138.747 115.711 138.616 115.711C138.419 115.711 138.091 115.711 137.611 115.759V115.735ZM139.074 115.168C139.424 115.239 139.795 115.262 140.167 115.262C140.538 115.262 140.91 115.215 141.215 115.144C141.521 115.073 141.783 114.955 142.002 114.813C142.22 114.671 142.417 114.482 142.614 114.222C142.81 113.962 142.963 113.607 143.072 113.205C143.182 112.803 143.247 112.378 143.247 111.928C143.247 111.29 143.138 110.746 142.92 110.297C142.701 109.848 142.395 109.493 141.98 109.257C141.565 109.02 140.997 108.902 140.254 108.902C139.883 108.902 139.489 108.926 139.074 108.997C139.074 109.162 139.074 109.469 139.052 109.871V110.604V112.638V114.222C139.052 114.458 139.074 114.766 139.096 115.144L139.074 115.168Z" fill="#242424"/>
<path d="M145.627 114.575C145.78 114.575 145.911 114.623 146.02 114.765C146.129 114.883 146.195 115.025 146.195 115.19C146.195 115.356 146.151 115.497 146.02 115.616C145.911 115.734 145.78 115.781 145.627 115.781C145.474 115.781 145.343 115.734 145.234 115.616C145.124 115.497 145.059 115.356 145.059 115.19C145.059 115.025 145.124 114.883 145.234 114.765C145.343 114.646 145.474 114.575 145.627 114.575Z" fill="#242424"/>
</g>
<g clip-path="url(#clip1_3201_1704)">
<path d="M92.44 72.5438V68.203C103.009 64.783 110.569 55.6574 112.032 44.8546H107.213C105.701 54.1118 98.821 61.774 89.4157 64.1417L87.5546 64.4706L87.6044 73.4811C86.275 73.6455 84.9789 73.7441 83.6329 73.7441C82.5029 73.7441 81.3896 73.6784 80.2928 73.5797L80.2596 64.5692L78.1658 64.3061C68.5278 62.1851 61.2329 54.2926 59.6542 44.8382H54.8353C56.3807 55.9533 64.5065 65.3913 75.5071 68.5154V72.7083C62.4127 69.4198 52.4258 58.3868 50.8305 44.8382H45.9783C47.9225 63.6978 64.0578 78.4631 83.6329 78.4631C103.208 78.4631 119.343 63.6978 121.288 44.8382H116.452C114.873 58.1402 105.219 69.0251 92.4566 72.5274L92.44 72.5438Z" fill="#242424"/>
<path d="M92.0248 13.7459V9.38868C105.053 12.743 114.624 23.5786 116.386 36.6997H121.205C119.377 20.9971 107.778 8.07328 92.0414 4.55458V0H87.2556V15.4395V17.3962L89.0835 17.8566C98.5055 20.0928 105.451 27.5577 107.146 36.7161H111.982C110.337 25.9627 102.676 17.018 92.0414 13.7624L92.0248 13.7459Z" fill="#242424"/>
<path d="M79.8851 0.0701535L75.0994 0.103038V4.59185C59.4459 8.15987 47.897 21.0672 46.0857 36.7041H50.9047C52.6495 23.6323 62.1546 12.8295 75.116 9.42595V13.6681C64.3314 16.858 56.5712 25.8356 54.9261 36.7041H59.7617C61.4566 27.4634 68.4857 19.982 78.024 17.7952L79.8851 17.5321L79.9184 0.0537109L79.8851 0.0701535Z" fill="#242424"/>
<path d="M89.1016 59.0783C90.5971 59.0783 92.1425 59.2263 92.3419 58.0918C92.5413 56.9573 91.3449 56.7106 91.3449 56.7106C86.5591 56.7106 86.7087 54.3429 86.7087 54.3429C86.7087 54.3429 86.6422 49.8048 86.6422 40.9422C86.6422 32.0797 86.7752 27.9855 90.9128 27.9855C95.4161 27.9855 96.2304 33.9377 96.9283 36.3054C97.6262 38.6732 99.936 38.3772 99.936 37.6866C99.936 36.996 99.936 25.0752 99.936 25.0752H67.0837C67.0837 25.0752 67.0837 36.996 67.0837 37.6866C67.0837 38.3772 69.3935 38.6732 70.0915 36.3054C70.7894 33.9377 71.6202 27.9855 76.1069 27.9855C80.2446 27.9855 80.3775 32.0797 80.3775 40.9422C80.3775 49.8048 80.444 54.3429 80.444 54.3429C80.444 54.3429 80.444 56.7106 75.6582 56.7106C75.6582 56.7106 74.4618 56.9573 74.6612 58.0918C74.8606 59.2263 76.406 59.0783 77.9016 59.0783H89.0849H89.1016Z" fill="#242424"/>
</g>
<g clip-path="url(#clip2_3201_1704)">
<path d="M19.159 91.3496V90.3609H10.043V88.9095H9.05237V90.3609H0V91.3496H9.05237V92.4744H3.37192C2.43578 92.4744 1.68141 93.2273 1.68141 94.1526V96.511C1.68141 97.4363 2.43578 98.1892 3.37192 98.1892H8.67064C7.26189 98.9965 3.63549 100.956 0 102.035L0.92705 102.779C4.37167 101.672 7.62544 99.9308 9.05237 99.1144V103.314H10.043V99.1235C11.47 99.9399 14.7237 101.682 18.1684 102.797L19.1045 102.044C15.4599 100.965 11.8244 98.9965 10.4248 98.1892H15.7417C16.6687 98.1892 17.4322 97.4363 17.4322 96.511V94.1526C17.4322 93.2273 16.6778 92.4744 15.7417 92.4744H10.0521V91.3496H19.1681H19.159ZM9.05237 97.1823H3.23558C2.92657 97.1823 2.67208 96.9374 2.67208 96.6199V95.8579H9.04328V97.1732L9.05237 97.1823ZM9.05237 94.8692H2.67208V94.0165C2.67208 93.7081 2.92657 93.4541 3.23558 93.4541H9.04328V94.8692H9.05237ZM16.4142 96.6199C16.4142 96.9283 16.1597 97.1823 15.8507 97.1823H10.043V95.867H16.4142V96.629V96.6199ZM15.8507 93.4632C16.1597 93.4632 16.4142 93.7172 16.4142 94.0256V94.8783H10.043V93.4632H15.8507Z" fill="#242424"/>
<path d="M27.3559 92.4835H21.3301V93.4722H27.3559V98.9421C25.0746 100.149 22.5934 100.883 21.4028 101.192L22.0844 102.035C23.3296 101.691 25.3564 101.056 27.3468 100.058V103.323H28.3375V88.9095H27.3468V92.4835H27.3559Z" fill="#242424"/>
<path d="M89.4857 92.0753H92.494V91.0866H89.4857V88.9095H88.495V91.0866H85.3594V92.0753H88.495V93.5811C87.4043 95.5132 86.1683 97.0281 85.4594 97.8626L86.2773 98.5067C86.8408 97.8263 87.677 96.7378 88.495 95.486V103.323H89.4857V95.6402C90.2037 96.6108 90.9035 97.4454 91.467 98.0622L92.1577 97.3546C91.4125 96.5201 90.4036 95.3046 89.4857 93.9077V92.0753Z" fill="#242424"/>
<path d="M98.7397 91.8757H102.839V90.887H98.7397V88.9095H97.749V90.887H94.8679C95.2042 90.1885 95.5132 89.5082 95.7768 88.9095L94.7043 88.9277C94.1317 90.2157 93.3955 91.7397 92.5321 93.2001L93.3592 93.7625C93.7318 93.1366 94.0772 92.5016 94.3953 91.8667H97.7672V94.8329H92.1504V95.8216H97.7672V96.1573C96.5584 97.3819 94.568 99.2686 92.3594 100.874L93.0502 101.591C94.8952 100.248 96.5584 98.7334 97.7672 97.5542V103.305H98.7579V97.8445C99.9303 98.9784 101.475 100.357 103.175 101.591L103.866 100.874C101.83 99.3956 99.9758 97.6721 98.7579 96.4566V95.8307H104.048V94.842H98.7579V91.8757H98.7397Z" fill="#242424"/>
<path d="M39.0717 101.727C39.0717 102.035 38.8173 102.28 38.5082 102.28H34.0366C33.7276 102.28 33.4731 102.035 33.4731 101.727V94.851C36.4724 93.5539 39.0536 91.5673 39.7807 90.9777L38.8991 90.4153C38.0084 91.1047 35.8907 92.6558 33.4731 93.7625V88.9095H32.4824V101.609C32.4824 102.543 33.2368 103.287 34.1729 103.287H38.3901C39.3171 103.287 40.0715 102.534 40.0715 101.609V98.4159H39.0627V101.718L39.0717 101.727Z" fill="#242424"/>
<path d="M52.569 91.5768H60.7488V90.5972H43.2439V91.5768H51.5783V101.011H42.3987V101.999H61.5941V101.011H52.569V91.5768Z" fill="#242424"/>
<path d="M82.5434 98.4069H73.5547V97.4181H81.1347V96.4294H73.5547V95.4407H81.4164V94.4519H76.3177L77.581 92.8373H82.2526V91.8485H78.3535L79.9077 89.862L79.1261 89.2542L77.0993 91.8485H75.6178V88.9095H74.6272V91.8485H71.5733V88.9095H70.5827V91.8485H69.0194L66.9926 89.2542L66.211 89.862L67.7652 91.8485H63.9297V92.8373H68.5377L69.801 94.4519H64.7659V95.4407H72.564V96.4294H65.0476V97.4181H72.564V98.4069H63.648V99.3956H70.4736C68.7013 100.094 66.0928 100.992 63.4844 101.509L64.1115 102.389C67.747 101.618 71.2189 100.194 72.564 99.6043V103.215H73.5547V99.6496C74.9725 100.266 78.3626 101.636 81.9163 102.389L82.5434 101.509C79.935 100.992 77.3265 100.094 75.5542 99.3956H82.5434V98.4069ZM71.0553 94.4519L69.792 92.8373H76.3267L75.0634 94.4519H71.0644H71.0553Z" fill="#242424"/>
<path d="M117.335 100.149C115.835 100.503 114.29 100.739 112.872 100.893V95.8314H116.935V94.8426H107.719V95.8314H111.882V100.993C109.064 101.256 106.919 101.22 106.883 101.22V102.208C106.883 102.208 106.992 102.208 107.165 102.208C108.364 102.208 113.118 102.136 117.553 101.102L117.326 100.14L117.335 100.149Z" fill="#242424"/>
<path d="M125.461 91.8122H118.89C118.554 90.4697 118.345 89.4084 118.254 88.9095H117.254C117.318 89.2451 117.509 90.3337 117.863 91.8122H106.402V92.801H118.108C118.954 96.0303 120.444 100.475 122.744 103.151C122.844 103.26 122.98 103.323 123.125 103.323C123.153 103.323 123.18 103.323 123.207 103.323C123.38 103.287 123.525 103.178 123.589 103.015L125.307 98.552C125.407 98.298 125.279 98.0078 125.025 97.908C124.77 97.8082 124.48 97.9352 124.389 98.1982L122.98 101.854C121.18 99.3866 119.926 95.6856 119.163 92.8191H125.479V91.8304L125.461 91.8122Z" fill="#242424"/>
<path d="M123.916 90.3609L121.208 88.9095L120.744 89.7894L123.453 91.2317L123.916 90.3609Z" fill="#242424"/>
<path d="M162.78 101.963V92.801H167.242V91.8122H162.78V88.9095H161.789V91.8122H157.735V92.801H161.789V101.963H156.045V102.951H167.742V101.963H162.78Z" fill="#242424"/>
<path d="M156.981 98.5702L157.49 97.7266L153.646 95.3681V95.3409C156 92.9552 156.409 91.6036 156.427 91.531C156.463 91.3859 156.436 91.2226 156.345 91.0956C156.254 90.9686 156.109 90.9051 155.954 90.9051H153.8V88.9095H152.81V90.887H149.02V91.8667H155.164C154.591 92.8554 153.046 94.9508 149.11 97.9443L149.71 98.7334C150.883 97.8445 151.855 97.0281 152.655 96.2843V103.478H153.646V96.511L156.981 98.5611V98.5702Z" fill="#242424"/>
<path d="M143.366 93.7898H131.178V94.7785H143.366V93.7898Z" fill="#242424"/>
<path d="M146.464 97.4183V96.4296H127.996V97.4183H134.422L130.205 102.081C130.068 102.226 130.041 102.453 130.132 102.634C130.214 102.807 130.386 102.906 130.577 102.906H130.614L144.374 101.936L145.583 103.287L146.328 102.634L141.965 97.7358L141.22 98.3889L143.547 100.992L131.768 101.818L135.758 97.4002H146.464V97.4183Z" fill="#242424"/>
<path d="M137.268 89.481C140.658 92.0118 144.694 93.4813 145.939 93.9076L146.393 93.0187C145.503 92.7193 141.985 91.4766 138.823 89.3631H138.813C138.368 89.0728 137.841 88.9095 137.277 88.9095C136.714 88.9095 136.15 89.0819 135.696 89.3812C132.533 91.4857 129.034 92.7284 128.152 93.0187L128.607 93.9076C129.852 93.4904 133.887 92.0118 137.277 89.481H137.268Z" fill="#242424"/>
</g>
<defs>
<clipPath id="clip0_3201_1704">
<rect width="124.793" height="8.9138" fill="white" transform="translate(21.4023 108.357)"/>
</clipPath>
<clipPath id="clip1_3201_1704">
<rect width="75.3093" height="78.4802" fill="white" transform="translate(45.9783)"/>
</clipPath>
<clipPath id="clip2_3201_1704">
<rect width="167.742" height="14.5862" fill="white" transform="translate(0 88.9095)"/>
</clipPath>
</defs>
</svg>
